<?xml version="1.0" encoding="utf-8"?>
<!-- Generator: Adobe Illustrator 21.1.0, SVG Export Plug-In . SVG Version: 6.00 Build 0)  -->
<svg version="1.1" id="Layer_1" xmlns="http://www.w3.org/2000/svg" xmlns:xlink="http://www.w3.org/1999/xlink" x="0px" y="0px"
	 viewBox="0 0 25 25" style="enable-background:new 0 0 25 25;" xml:space="preserve">
<style type="text/css">
	.st0{clip-path:url(#SVGID_2_);}
	.st1{opacity:0.69;clip-path:url(#SVGID_4_);}
	.st2{clip-path:url(#SVGID_6_);fill:#6AA9DD;}
	.st3{clip-path:url(#SVGID_4_);fill:#6AA9DD;}
	.st4{clip-path:url(#SVGID_4_);fill:#20568E;}
	.st5{clip-path:url(#SVGID_4_);fill:#FFFFFF;}
	.st6{clip-path:url(#SVGID_8_);fill:#D4E4F1;}
	.st7{clip-path:url(#SVGID_8_);fill:#FFFFFF;}
	.st8{clip-path:url(#SVGID_8_);fill:#20568E;}
	.st9{clip-path:url(#SVGID_8_);fill:#295A99;}
	.st10{fill:#D4E4F1;}
	.st11{fill:#6AA9DD;}
	.st12{fill:#FFFFFF;}
	.st13{fill:#295A99;}
	.st14{clip-path:url(#SVGID_10_);fill:#D4E4F1;}
	.st15{clip-path:url(#SVGID_10_);fill:#FFFFFF;}
	.st16{clip-path:url(#SVGID_10_);fill:#295A99;}
	.st17{clip-path:url(#SVGID_10_);fill:#398CCB;}
	.st18{clip-path:url(#SVGID_10_);fill:#FDFFFF;}
	.st19{clip-path:url(#SVGID_12_);fill:#295A99;}
	.st20{clip-path:url(#SVGID_12_);fill:#FDFFFF;}
	.st21{clip-path:url(#SVGID_12_);fill:#D4E4F1;}
	.st22{clip-path:url(#SVGID_12_);fill:#6AA9DD;}
	.st23{clip-path:url(#SVGID_12_);fill:#398CCB;}
	.st24{fill:#AFDFF9;}
	.st25{fill:#398CCB;}
	.st26{clip-path:url(#SVGID_14_);}
	.st27{opacity:0.3;clip-path:url(#SVGID_16_);}
	.st28{clip-path:url(#SVGID_18_);fill:#A5C5E2;}
	.st29{opacity:0.6;clip-path:url(#SVGID_16_);}
	.st30{clip-path:url(#SVGID_20_);fill:#A5C5E2;}
	.st31{opacity:0.2;clip-path:url(#SVGID_16_);}
	.st32{clip-path:url(#SVGID_22_);fill:#A5C5E2;}
	.st33{clip-path:url(#SVGID_14_);fill:#AFDFF9;}
	.st34{clip-path:url(#SVGID_14_);fill:#6AA9DD;}
	.st35{clip-path:url(#SVGID_14_);fill:#D4E4F1;}
	.st36{clip-path:url(#SVGID_24_);fill:#295A99;}
	.st37{clip-path:url(#SVGID_14_);fill:#295A99;}
	.st38{clip-path:url(#SVGID_26_);fill:#295A99;}
	.st39{clip-path:url(#SVGID_28_);fill:#295A99;}
	.st40{clip-path:url(#SVGID_30_);fill:#295A99;}
	.st41{clip-path:url(#SVGID_32_);fill:#6AA9DD;}
	.st42{clip-path:url(#SVGID_32_);}
	.st43{opacity:0.5;clip-path:url(#SVGID_34_);}
	.st44{clip-path:url(#SVGID_36_);fill:#295A99;}
	.st45{opacity:0.6;clip-path:url(#SVGID_34_);}
	.st46{clip-path:url(#SVGID_38_);fill:#3E85C5;}
	.st47{opacity:0.2;clip-path:url(#SVGID_34_);}
	.st48{clip-path:url(#SVGID_40_);fill:#3E85C5;}
	.st49{opacity:0.3;clip-path:url(#SVGID_34_);}
	.st50{clip-path:url(#SVGID_42_);fill:#3E85C5;}
	.st51{clip-path:url(#SVGID_32_);fill:#AFDFF9;}
	.st52{clip-path:url(#SVGID_44_);fill:#FFFFFF;}
	.st53{clip-path:url(#SVGID_44_);fill:#D2E3F0;}
	.st54{clip-path:url(#SVGID_44_);fill:#20568E;}
	.st55{clip-path:url(#SVGID_44_);fill:#3E85C5;}
	.st56{fill:#2C5261;}
	.st57{clip-path:url(#SVGID_46_);fill:#D4E4F1;}
	.st58{clip-path:url(#SVGID_46_);fill:#6AA9DD;}
	.st59{clip-path:url(#SVGID_46_);fill:#295A99;}
	.st60{clip-path:url(#SVGID_46_);fill:#398CCB;}
	.st61{clip-path:url(#SVGID_48_);fill:#2C5261;}
	.st62{clip-path:url(#SVGID_48_);fill:#398CCB;}
	.st63{clip-path:url(#SVGID_48_);fill:#20568E;}
	.st64{clip-path:url(#SVGID_48_);fill:#6AA9DD;}
	.st65{clip-path:url(#SVGID_48_);fill:#D4E4F1;}
	.st66{clip-path:url(#SVGID_48_);}
	.st67{opacity:0.2;clip-path:url(#SVGID_50_);}
	.st68{clip-path:url(#SVGID_52_);fill:#3E85C5;}
	.st69{fill:#20568E;}
	.st70{fill:#3E85C5;}
	.st71{clip-path:url(#SVGID_54_);fill:#295A99;}
	.st72{clip-path:url(#SVGID_56_);fill:#295A99;}
	.st73{clip-path:url(#SVGID_58_);fill:#295A99;}
	.st74{fill:#2D4456;}
	.st75{clip-path:url(#SVGID_60_);fill:#D4E4F1;}
	.st76{clip-path:url(#SVGID_60_);fill:#398CCB;}
	.st77{clip-path:url(#SVGID_60_);fill:#AFDFF9;}
	.st78{clip-path:url(#SVGID_60_);fill:#6AA9DD;}
	.st79{clip-path:url(#SVGID_60_);fill:#20568E;}
	.st80{clip-path:url(#SVGID_60_);fill:#2C5261;}
	.st81{clip-path:url(#SVGID_62_);}
	.st82{opacity:0.8;clip-path:url(#SVGID_64_);}
	.st83{clip-path:url(#SVGID_66_);fill:#AFDFF9;}
	.st84{clip-path:url(#SVGID_62_);fill:#6AA9DD;}
	.st85{opacity:0.5;clip-path:url(#SVGID_68_);}
	.st86{clip-path:url(#SVGID_70_);fill:#D4E4F1;}
	.st87{clip-path:url(#SVGID_62_);fill:#295A99;}
	.st88{clip-path:url(#SVGID_62_);fill:#2C5261;}
	.st89{clip-path:url(#SVGID_62_);fill:#398CCB;}
	.st90{clip-path:url(#SVGID_72_);fill:#295A99;}
	.st91{clip-path:url(#SVGID_74_);fill:#295A99;}
	.st92{clip-path:url(#SVGID_76_);fill:#295A99;}
</style>
<g>
	<defs>
		<rect id="SVGID_11_" x="1.8" y="1.3" width="21.5" height="22.4"/>
	</defs>
	<clipPath id="SVGID_2_">
		<use xlink:href="#SVGID_11_"  style="overflow:visible;"/>
	</clipPath>
	<path style="clip-path:url(#SVGID_2_);fill:#295A99;" d="M12.6,22.8c-0.1,0-0.2,0-0.2-0.1l-0.7-0.4l0.4-0.9l0.5,0.2l0.8-0.4
		l0.4,0.9l-1.1,0.5C12.7,22.8,12.6,22.8,12.6,22.8z M10.7,21.9L8.9,21l0.4-0.9l1.8,0.9L10.7,21.9z M14.7,21.8l-0.4-0.9l1.8-0.9
		l0.4,0.9L14.7,21.8z M8,20.6l-1.8-0.9l0.4-0.9l1.8,0.9L8,20.6z M17.4,20.4L17,19.5l1.8-0.9l0.4,0.9L17.4,20.4z M5.3,19.3l-1.8-0.9
		L4,17.5l1.8,0.9L5.3,19.3z M20.1,19.1l-0.4-0.9l1.7-0.9v-1.7h1v2h-0.8l0.3,0.6L20.1,19.1z M3.7,17.3h-1v-2h1V17.3z M22.4,14.6h-1
		v-2h1V14.6z M3.7,14.3h-1v-2h1V14.3z M22.4,11.6h-1v-2h1V11.6z M3.7,11.3h-1v-2h1V11.3z M22.4,8.6h-1v-1L21,7.5l0.4-0.9l0.6,0.3
		c0.2,0.1,0.3,0.3,0.3,0.4V8.6z M3.7,8.3h-1V7.4C2.7,7.2,2.8,7,3,6.9l1-0.5l0.4,0.9L3.7,7.7V8.3z M20.1,7.1l-1.8-0.9l0.4-0.9
		l1.8,0.9L20.1,7.1z M5.3,6.9L4.9,6l1.8-0.9L7.1,6L5.3,6.9z M17.4,5.7l-1.8-0.9L16.1,4l1.8,0.9L17.4,5.7z M8,5.6L7.6,4.7l1.8-0.9
		l0.4,0.9L8,5.6z M14.7,4.4L13,3.5l0.4-0.9l1.8,0.9L14.7,4.4z M10.7,4.2l-0.4-0.9l1.8-0.9l0.4,0.9L10.7,4.2z"/>
	<path style="clip-path:url(#SVGID_2_);fill:#FDFFFF;" d="M12.6,23.2c-0.5,0-0.9-0.4-0.9-1c0-0.5,0.4-1,0.9-1c0.5,0,0.9,0.4,0.9,1
		C13.5,22.8,13.1,23.2,12.6,23.2"/>
	<path style="clip-path:url(#SVGID_2_);fill:#295A99;" d="M12.6,21.8c0.2,0,0.4,0.2,0.4,0.5c0,0.3-0.2,0.5-0.4,0.5
		c-0.2,0-0.4-0.2-0.4-0.5C12.1,22,12.3,21.8,12.6,21.8 M12.6,20.8c-0.8,0-1.4,0.7-1.4,1.5c0,0.8,0.6,1.5,1.4,1.5
		c0.8,0,1.4-0.7,1.4-1.5C14,21.4,13.3,20.8,12.6,20.8"/>
	<path style="clip-path:url(#SVGID_2_);fill:#FDFFFF;" d="M3.2,18.6c-0.5,0-0.9-0.4-0.9-1c0-0.5,0.4-1,0.9-1s0.9,0.4,0.9,1
		C4.1,18.2,3.7,18.6,3.2,18.6"/>
	<path style="clip-path:url(#SVGID_2_);fill:#295A99;" d="M3.2,17.2c0.2,0,0.4,0.2,0.4,0.5s-0.2,0.5-0.4,0.5c-0.2,0-0.4-0.2-0.4-0.5
		S2.9,17.2,3.2,17.2 M3.2,16.2c-0.8,0-1.4,0.7-1.4,1.5c0,0.8,0.6,1.5,1.4,1.5s1.4-0.7,1.4-1.5C4.6,16.8,4,16.2,3.2,16.2"/>
	<path style="clip-path:url(#SVGID_2_);fill:#FDFFFF;" d="M12.6,3.7c-0.5,0-0.9-0.4-0.9-1c0-0.5,0.4-1,0.9-1c0.5,0,0.9,0.4,0.9,1
		C13.5,3.3,13.1,3.7,12.6,3.7"/>
	<path style="clip-path:url(#SVGID_2_);fill:#295A99;" d="M12.6,2.3c0.2,0,0.4,0.2,0.4,0.5c0,0.3-0.2,0.5-0.4,0.5
		c-0.2,0-0.4-0.2-0.4-0.5C12.1,2.5,12.3,2.3,12.6,2.3 M12.6,1.3c-0.8,0-1.4,0.7-1.4,1.5c0,0.8,0.6,1.5,1.4,1.5
		c0.8,0,1.4-0.7,1.4-1.5C14,1.9,13.3,1.3,12.6,1.3"/>
	<path style="clip-path:url(#SVGID_2_);fill:#FDFFFF;" d="M3.2,8.3c-0.5,0-0.9-0.4-0.9-1c0-0.5,0.4-1,0.9-1s0.9,0.4,0.9,1
		C4.1,7.9,3.7,8.3,3.2,8.3"/>
	<path style="clip-path:url(#SVGID_2_);fill:#295A99;" d="M3.2,6.9c0.2,0,0.4,0.2,0.4,0.5c0,0.3-0.2,0.5-0.4,0.5
		c-0.2,0-0.4-0.2-0.4-0.5C2.8,7.1,2.9,6.9,3.2,6.9 M3.2,5.9c-0.8,0-1.4,0.7-1.4,1.5c0,0.8,0.6,1.5,1.4,1.5s1.4-0.7,1.4-1.5
		C4.6,6.6,4,5.9,3.2,5.9"/>
	<path style="clip-path:url(#SVGID_2_);fill:#FDFFFF;" d="M21.8,18.6c-0.5,0-0.9-0.4-0.9-1c0-0.5,0.4-1,0.9-1c0.5,0,0.9,0.4,0.9,1
		C22.8,18.2,22.3,18.6,21.8,18.6"/>
	<path style="clip-path:url(#SVGID_2_);fill:#295A99;" d="M21.8,17.2c0.2,0,0.4,0.2,0.4,0.5s-0.2,0.5-0.4,0.5
		c-0.2,0-0.4-0.2-0.4-0.5S21.6,17.2,21.8,17.2 M21.8,16.2c-0.8,0-1.4,0.7-1.4,1.5c0,0.8,0.6,1.5,1.4,1.5c0.8,0,1.4-0.7,1.4-1.5
		C23.3,16.8,22.6,16.2,21.8,16.2"/>
	<path style="clip-path:url(#SVGID_2_);fill:#FDFFFF;" d="M21.8,8.3c-0.5,0-0.9-0.4-0.9-1c0-0.5,0.4-1,0.9-1c0.5,0,0.9,0.4,0.9,1
		C22.8,7.9,22.3,8.3,21.8,8.3"/>
	<path style="clip-path:url(#SVGID_2_);fill:#295A99;" d="M21.8,6.9c0.2,0,0.4,0.2,0.4,0.5c0,0.3-0.2,0.5-0.4,0.5
		c-0.2,0-0.4-0.2-0.4-0.5C21.4,7.1,21.6,6.9,21.8,6.9 M21.8,5.9c-0.8,0-1.4,0.7-1.4,1.5c0,0.8,0.6,1.5,1.4,1.5
		c0.8,0,1.4-0.7,1.4-1.5C23.3,6.6,22.6,5.9,21.8,5.9"/>
	<path style="clip-path:url(#SVGID_2_);fill:#D4E4F1;" d="M9.5,17.7c-2.9-1.7-3.9-5.4-2.2-8.2c1.7-2.9,5.4-3.9,8.2-2.2
		c2.9,1.7,3.9,5.4,2.2,8.2C16.1,18.4,12.4,19.4,9.5,17.7"/>
	<path style="clip-path:url(#SVGID_2_);fill:#6AA9DD;" d="M10.4,16.3c-2.1-1.2-2.8-3.9-1.6-6c1.2-2.1,3.9-2.8,6-1.6
		c2.1,1.2,2.8,3.9,1.6,6C15.1,16.8,12.5,17.5,10.4,16.3"/>
	<path style="clip-path:url(#SVGID_2_);fill:#295A99;" d="M14.6,12.5c0,1.1-0.9,2-2,2c-1.1,0-2-0.9-2-2s0.9-2,2-2
		C13.7,10.5,14.6,11.4,14.6,12.5"/>
	<path style="clip-path:url(#SVGID_2_);fill:#295A99;" d="M12.6,15c-1.4,0-2.5-1.1-2.5-2.5s1.1-2.5,2.5-2.5s2.5,1.1,2.5,2.5
		S14,15,12.6,15z M12.6,11c-0.8,0-1.5,0.7-1.5,1.5s0.7,1.5,1.5,1.5s1.5-0.7,1.5-1.5S13.4,11,12.6,11z"/>
	<path style="clip-path:url(#SVGID_2_);fill:#398CCB;" d="M11.6,14.3c-1-0.6-1.3-1.8-0.8-2.8c0.6-1,1.8-1.3,2.8-0.8"/>
	<path style="clip-path:url(#SVGID_2_);fill:#295A99;" d="M12.6,15c-1.4,0-2.5-1.1-2.5-2.5s1.1-2.5,2.5-2.5s2.5,1.1,2.5,2.5
		S14,15,12.6,15z M12.6,11c-0.8,0-1.5,0.7-1.5,1.5s0.7,1.5,1.5,1.5s1.5-0.7,1.5-1.5S13.4,11,12.6,11z"/>
</g>
</svg>
