<?xml version="1.0" encoding="utf-8"?>
<!-- Generator: Adobe Illustrator 21.1.0, SVG Export Plug-In . SVG Version: 6.00 Build 0)  -->
<svg version="1.1" id="Layer_1" xmlns="http://www.w3.org/2000/svg" xmlns:xlink="http://www.w3.org/1999/xlink" x="0px" y="0px"
	 viewBox="0 0 25 25" style="enable-background:new 0 0 25 25;" xml:space="preserve">
<style type="text/css">
	.st0{clip-path:url(#SVGID_2_);}
	.st1{opacity:0.69;clip-path:url(#SVGID_4_);}
	.st2{clip-path:url(#SVGID_6_);fill:#6AA9DD;}
	.st3{clip-path:url(#SVGID_4_);fill:#6AA9DD;}
	.st4{clip-path:url(#SVGID_4_);fill:#20568E;}
	.st5{clip-path:url(#SVGID_4_);fill:#FFFFFF;}
	.st6{clip-path:url(#SVGID_8_);fill:#D4E4F1;}
	.st7{clip-path:url(#SVGID_8_);fill:#FFFFFF;}
	.st8{clip-path:url(#SVGID_8_);fill:#20568E;}
	.st9{clip-path:url(#SVGID_8_);fill:#295A99;}
	.st10{fill:#D4E4F1;}
	.st11{fill:#6AA9DD;}
	.st12{fill:#FFFFFF;}
	.st13{fill:#295A99;}
	.st14{clip-path:url(#SVGID_10_);fill:#D4E4F1;}
	.st15{clip-path:url(#SVGID_10_);fill:#FFFFFF;}
	.st16{clip-path:url(#SVGID_10_);fill:#295A99;}
	.st17{clip-path:url(#SVGID_10_);fill:#398CCB;}
	.st18{clip-path:url(#SVGID_10_);fill:#FDFFFF;}
	.st19{clip-path:url(#SVGID_12_);fill:#295A99;}
	.st20{clip-path:url(#SVGID_12_);fill:#FDFFFF;}
	.st21{clip-path:url(#SVGID_12_);fill:#D4E4F1;}
	.st22{clip-path:url(#SVGID_12_);fill:#6AA9DD;}
	.st23{clip-path:url(#SVGID_12_);fill:#398CCB;}
	.st24{fill:#AFDFF9;}
	.st25{fill:#398CCB;}
	.st26{clip-path:url(#SVGID_14_);}
	.st27{opacity:0.3;clip-path:url(#SVGID_16_);}
	.st28{clip-path:url(#SVGID_18_);fill:#A5C5E2;}
	.st29{opacity:0.6;clip-path:url(#SVGID_16_);}
	.st30{clip-path:url(#SVGID_20_);fill:#A5C5E2;}
	.st31{opacity:0.2;clip-path:url(#SVGID_16_);}
	.st32{clip-path:url(#SVGID_22_);fill:#A5C5E2;}
	.st33{clip-path:url(#SVGID_14_);fill:#AFDFF9;}
	.st34{clip-path:url(#SVGID_14_);fill:#6AA9DD;}
	.st35{clip-path:url(#SVGID_14_);fill:#D4E4F1;}
	.st36{clip-path:url(#SVGID_24_);fill:#295A99;}
	.st37{clip-path:url(#SVGID_14_);fill:#295A99;}
	.st38{clip-path:url(#SVGID_26_);fill:#295A99;}
	.st39{clip-path:url(#SVGID_28_);fill:#295A99;}
	.st40{clip-path:url(#SVGID_30_);fill:#295A99;}
	.st41{clip-path:url(#SVGID_32_);fill:#6AA9DD;}
	.st42{clip-path:url(#SVGID_32_);}
	.st43{opacity:0.5;clip-path:url(#SVGID_34_);}
	.st44{clip-path:url(#SVGID_36_);fill:#295A99;}
	.st45{opacity:0.6;clip-path:url(#SVGID_34_);}
	.st46{clip-path:url(#SVGID_38_);fill:#3E85C5;}
	.st47{opacity:0.2;clip-path:url(#SVGID_34_);}
	.st48{clip-path:url(#SVGID_40_);fill:#3E85C5;}
	.st49{opacity:0.3;clip-path:url(#SVGID_34_);}
	.st50{clip-path:url(#SVGID_42_);fill:#3E85C5;}
	.st51{clip-path:url(#SVGID_32_);fill:#AFDFF9;}
	.st52{clip-path:url(#SVGID_44_);fill:#FFFFFF;}
	.st53{clip-path:url(#SVGID_44_);fill:#D2E3F0;}
	.st54{clip-path:url(#SVGID_44_);fill:#20568E;}
	.st55{clip-path:url(#SVGID_44_);fill:#3E85C5;}
	.st56{fill:#2C5261;}
	.st57{clip-path:url(#SVGID_46_);fill:#D4E4F1;}
	.st58{clip-path:url(#SVGID_46_);fill:#6AA9DD;}
	.st59{clip-path:url(#SVGID_46_);fill:#295A99;}
	.st60{clip-path:url(#SVGID_46_);fill:#398CCB;}
	.st61{clip-path:url(#SVGID_48_);fill:#2C5261;}
	.st62{clip-path:url(#SVGID_48_);fill:#398CCB;}
	.st63{clip-path:url(#SVGID_48_);fill:#20568E;}
	.st64{clip-path:url(#SVGID_48_);fill:#6AA9DD;}
	.st65{clip-path:url(#SVGID_48_);fill:#D4E4F1;}
	.st66{clip-path:url(#SVGID_48_);}
	.st67{opacity:0.2;clip-path:url(#SVGID_50_);}
	.st68{clip-path:url(#SVGID_52_);fill:#3E85C5;}
	.st69{fill:#20568E;}
	.st70{fill:#3E85C5;}
	.st71{clip-path:url(#SVGID_54_);fill:#295A99;}
	.st72{clip-path:url(#SVGID_56_);fill:#295A99;}
	.st73{clip-path:url(#SVGID_58_);fill:#295A99;}
	.st74{fill:#2D4456;}
	.st75{clip-path:url(#SVGID_60_);fill:#D4E4F1;}
	.st76{clip-path:url(#SVGID_60_);fill:#398CCB;}
	.st77{clip-path:url(#SVGID_60_);fill:#AFDFF9;}
	.st78{clip-path:url(#SVGID_60_);fill:#6AA9DD;}
	.st79{clip-path:url(#SVGID_60_);fill:#20568E;}
	.st80{clip-path:url(#SVGID_60_);fill:#2C5261;}
	.st81{clip-path:url(#SVGID_62_);}
	.st82{opacity:0.8;clip-path:url(#SVGID_64_);}
	.st83{clip-path:url(#SVGID_66_);fill:#AFDFF9;}
	.st84{clip-path:url(#SVGID_62_);fill:#6AA9DD;}
	.st85{opacity:0.5;clip-path:url(#SVGID_68_);}
	.st86{clip-path:url(#SVGID_70_);fill:#D4E4F1;}
	.st87{clip-path:url(#SVGID_62_);fill:#295A99;}
	.st88{clip-path:url(#SVGID_62_);fill:#2C5261;}
	.st89{clip-path:url(#SVGID_62_);fill:#398CCB;}
	.st90{clip-path:url(#SVGID_72_);fill:#295A99;}
	.st91{clip-path:url(#SVGID_74_);fill:#295A99;}
	.st92{clip-path:url(#SVGID_76_);fill:#295A99;}
</style>
<g>
	<polygon class="st69" points="12.5,10.7 5.1,15.1 12.5,19.1 19.9,15.1 	"/>
	<polygon class="st11" points="12.5,21.2 19.9,16.9 19.9,15.1 12.5,19.1 	"/>
	<polygon class="st70" points="12.5,21.2 5.1,16.9 5.1,15.1 12.5,19.1 	"/>
	<polygon class="st69" points="12.5,7.3 5.1,11.7 12.5,15.7 19.9,11.7 	"/>
	<polygon class="st11" points="12.5,17.7 19.9,13.5 19.9,11.7 12.5,15.7 	"/>
	<polygon class="st70" points="12.5,17.7 5.1,13.5 5.1,11.7 12.5,15.7 	"/>
	<polygon class="st69" points="12.5,3.8 5.1,8.3 12.5,12.3 19.9,8.3 	"/>
	<polygon class="st11" points="12.5,14.3 19.9,10 19.9,8.3 12.5,12.3 	"/>
	<polygon class="st70" points="12.5,14.3 5.1,10 5.1,8.3 12.5,12.3 	"/>
	<g>
		<defs>
			<rect id="SVGID_53_" x="2.3" y="1.1" width="20.4" height="22.7"/>
		</defs>
		<clipPath id="SVGID_2_">
			<use xlink:href="#SVGID_53_"  style="overflow:visible;"/>
		</clipPath>
		<path style="clip-path:url(#SVGID_2_);fill:#295A99;" d="M12.5,23.9c-0.1,0-0.1,0-0.2,0l-9.8-5.5c-0.1-0.1-0.2-0.2-0.2-0.3V7
			c0-0.1,0.1-0.3,0.2-0.3c0.1-0.1,0.3-0.1,0.4,0l9.8,5.3c0.1,0.1,0.2,0.2,0.2,0.3v11.1c0,0.1-0.1,0.3-0.2,0.3
			C12.6,23.8,12.6,23.9,12.5,23.9z M3.1,17.8l9.1,5.1V12.6L3.1,7.6V17.8z"/>
		<path style="clip-path:url(#SVGID_2_);fill:#295A99;" d="M12.5,12.7c-0.1,0-0.1,0-0.2,0L2.5,7.3C2.4,7.3,2.3,7.1,2.3,7
			s0.1-0.3,0.2-0.3l9.8-5.5c0.1-0.1,0.3-0.1,0.4,0l9.8,5.5c0.1,0.1,0.2,0.2,0.2,0.3s-0.1,0.3-0.2,0.3l-9.8,5.3
			C12.6,12.7,12.6,12.7,12.5,12.7z M3.5,7l9,4.9l9-4.9l-9-5.1L3.5,7z"/>
		<path style="clip-path:url(#SVGID_2_);fill:#295A99;" d="M12.5,23.9c-0.1,0-0.1,0-0.2-0.1c-0.1-0.1-0.2-0.2-0.2-0.3V12.3
			c0-0.1,0.1-0.3,0.2-0.3l9.8-5.3c0.1-0.1,0.3-0.1,0.4,0c0.1,0.1,0.2,0.2,0.2,0.3v11c0,0.1-0.1,0.3-0.2,0.3l-9.8,5.5
			C12.6,23.8,12.6,23.9,12.5,23.9z M12.9,12.6v10.3l9.1-5.1V7.6L12.9,12.6z"/>
		<rect x="12.1" y="1.7" style="clip-path:url(#SVGID_2_);fill:#295A99;" width="0.8" height="0.5"/>
	</g>
	<rect x="12.1" y="3.4" class="st13" width="0.8" height="0.5"/>
	<g>
		<defs>
			<rect id="SVGID_55_" x="2.3" y="1.1" width="20.4" height="22.7"/>
		</defs>
		<clipPath id="SVGID_4_">
			<use xlink:href="#SVGID_55_"  style="overflow:visible;"/>
		</clipPath>
		
			<rect x="2.7" y="17.5" transform="matrix(0.9114 -0.4114 0.4114 0.9114 -7.1073 2.8073)" style="clip-path:url(#SVGID_4_);fill:#295A99;" width="0.5" height="0.8"/>
	</g>
	<rect x="4.5" y="16.7" transform="matrix(0.9114 -0.4114 0.4114 0.9114 -6.6149 3.4737)" class="st13" width="0.5" height="0.8"/>
	<g>
		<defs>
			<rect id="SVGID_57_" x="2.3" y="1.1" width="20.4" height="22.7"/>
		</defs>
		<clipPath id="SVGID_6_">
			<use xlink:href="#SVGID_57_"  style="overflow:visible;"/>
		</clipPath>
		
			<rect x="21.6" y="17.6" transform="matrix(0.4743 -0.8803 0.8803 0.4743 -4.2013 28.7228)" style="clip-path:url(#SVGID_6_);fill:#295A99;" width="0.7" height="0.5"/>
	</g>
	<rect x="20" y="16.8" transform="matrix(0.4743 -0.8803 0.8803 0.4743 -4.2797 26.9176)" class="st13" width="0.7" height="0.5"/>
</g>
</svg>
