<?xml version="1.0" encoding="utf-8"?>
<!-- Generator: Adobe Illustrator 21.1.0, SVG Export Plug-In . SVG Version: 6.00 Build 0)  -->
<svg version="1.1" id="Layer_1" xmlns="http://www.w3.org/2000/svg" xmlns:xlink="http://www.w3.org/1999/xlink" x="0px" y="0px"
	 viewBox="0 0 25 25" style="enable-background:new 0 0 25 25;" xml:space="preserve">
<style type="text/css">
	.st0{clip-path:url(#SVGID_2_);}
	.st1{opacity:0.69;clip-path:url(#SVGID_4_);}
	.st2{clip-path:url(#SVGID_6_);fill:#6AA9DD;}
	.st3{clip-path:url(#SVGID_4_);fill:#6AA9DD;}
	.st4{clip-path:url(#SVGID_4_);fill:#20568E;}
	.st5{clip-path:url(#SVGID_4_);fill:#FFFFFF;}
	.st6{clip-path:url(#SVGID_8_);fill:#D4E4F1;}
	.st7{clip-path:url(#SVGID_8_);fill:#FFFFFF;}
	.st8{clip-path:url(#SVGID_8_);fill:#20568E;}
	.st9{clip-path:url(#SVGID_8_);fill:#295A99;}
	.st10{fill:#D4E4F1;}
	.st11{fill:#6AA9DD;}
	.st12{fill:#FFFFFF;}
	.st13{fill:#295A99;}
	.st14{clip-path:url(#SVGID_10_);fill:#D4E4F1;}
	.st15{clip-path:url(#SVGID_10_);fill:#FFFFFF;}
	.st16{clip-path:url(#SVGID_10_);fill:#295A99;}
	.st17{clip-path:url(#SVGID_10_);fill:#398CCB;}
	.st18{clip-path:url(#SVGID_10_);fill:#FDFFFF;}
	.st19{clip-path:url(#SVGID_12_);fill:#295A99;}
	.st20{clip-path:url(#SVGID_12_);fill:#FDFFFF;}
	.st21{clip-path:url(#SVGID_12_);fill:#D4E4F1;}
	.st22{clip-path:url(#SVGID_12_);fill:#6AA9DD;}
	.st23{clip-path:url(#SVGID_12_);fill:#398CCB;}
	.st24{fill:#AFDFF9;}
	.st25{fill:#398CCB;}
	.st26{clip-path:url(#SVGID_14_);}
	.st27{opacity:0.3;clip-path:url(#SVGID_16_);}
	.st28{clip-path:url(#SVGID_18_);fill:#A5C5E2;}
	.st29{opacity:0.6;clip-path:url(#SVGID_16_);}
	.st30{clip-path:url(#SVGID_20_);fill:#A5C5E2;}
	.st31{opacity:0.2;clip-path:url(#SVGID_16_);}
	.st32{clip-path:url(#SVGID_22_);fill:#A5C5E2;}
	.st33{clip-path:url(#SVGID_14_);fill:#AFDFF9;}
	.st34{clip-path:url(#SVGID_14_);fill:#6AA9DD;}
	.st35{clip-path:url(#SVGID_14_);fill:#D4E4F1;}
	.st36{clip-path:url(#SVGID_24_);fill:#295A99;}
	.st37{clip-path:url(#SVGID_14_);fill:#295A99;}
	.st38{clip-path:url(#SVGID_26_);fill:#295A99;}
	.st39{clip-path:url(#SVGID_28_);fill:#295A99;}
	.st40{clip-path:url(#SVGID_30_);fill:#295A99;}
	.st41{clip-path:url(#SVGID_32_);fill:#6AA9DD;}
	.st42{clip-path:url(#SVGID_32_);}
	.st43{opacity:0.5;clip-path:url(#SVGID_34_);}
	.st44{clip-path:url(#SVGID_36_);fill:#295A99;}
	.st45{opacity:0.6;clip-path:url(#SVGID_34_);}
	.st46{clip-path:url(#SVGID_38_);fill:#3E85C5;}
	.st47{opacity:0.2;clip-path:url(#SVGID_34_);}
	.st48{clip-path:url(#SVGID_40_);fill:#3E85C5;}
	.st49{opacity:0.3;clip-path:url(#SVGID_34_);}
	.st50{clip-path:url(#SVGID_42_);fill:#3E85C5;}
	.st51{clip-path:url(#SVGID_32_);fill:#AFDFF9;}
	.st52{clip-path:url(#SVGID_44_);fill:#FFFFFF;}
	.st53{clip-path:url(#SVGID_44_);fill:#D2E3F0;}
	.st54{clip-path:url(#SVGID_44_);fill:#20568E;}
	.st55{clip-path:url(#SVGID_44_);fill:#3E85C5;}
	.st56{fill:#2C5261;}
	.st57{clip-path:url(#SVGID_46_);fill:#D4E4F1;}
	.st58{clip-path:url(#SVGID_46_);fill:#6AA9DD;}
	.st59{clip-path:url(#SVGID_46_);fill:#295A99;}
	.st60{clip-path:url(#SVGID_46_);fill:#398CCB;}
	.st61{clip-path:url(#SVGID_48_);fill:#2C5261;}
	.st62{clip-path:url(#SVGID_48_);fill:#398CCB;}
	.st63{clip-path:url(#SVGID_48_);fill:#20568E;}
	.st64{clip-path:url(#SVGID_48_);fill:#6AA9DD;}
	.st65{clip-path:url(#SVGID_48_);fill:#D4E4F1;}
	.st66{clip-path:url(#SVGID_48_);}
	.st67{opacity:0.2;clip-path:url(#SVGID_50_);}
	.st68{clip-path:url(#SVGID_52_);fill:#3E85C5;}
	.st69{fill:#20568E;}
	.st70{fill:#3E85C5;}
	.st71{clip-path:url(#SVGID_54_);fill:#295A99;}
	.st72{clip-path:url(#SVGID_56_);fill:#295A99;}
	.st73{clip-path:url(#SVGID_58_);fill:#295A99;}
	.st74{fill:#2D4456;}
	.st75{clip-path:url(#SVGID_60_);fill:#D4E4F1;}
	.st76{clip-path:url(#SVGID_60_);fill:#398CCB;}
	.st77{clip-path:url(#SVGID_60_);fill:#AFDFF9;}
	.st78{clip-path:url(#SVGID_60_);fill:#6AA9DD;}
	.st79{clip-path:url(#SVGID_60_);fill:#20568E;}
	.st80{clip-path:url(#SVGID_60_);fill:#2C5261;}
	.st81{clip-path:url(#SVGID_62_);}
	.st82{opacity:0.8;clip-path:url(#SVGID_64_);}
	.st83{clip-path:url(#SVGID_66_);fill:#AFDFF9;}
	.st84{clip-path:url(#SVGID_62_);fill:#6AA9DD;}
	.st85{opacity:0.5;clip-path:url(#SVGID_68_);}
	.st86{clip-path:url(#SVGID_70_);fill:#D4E4F1;}
	.st87{clip-path:url(#SVGID_62_);fill:#295A99;}
	.st88{clip-path:url(#SVGID_62_);fill:#2C5261;}
	.st89{clip-path:url(#SVGID_62_);fill:#398CCB;}
	.st90{clip-path:url(#SVGID_72_);fill:#295A99;}
	.st91{clip-path:url(#SVGID_74_);fill:#295A99;}
	.st92{clip-path:url(#SVGID_76_);fill:#295A99;}
</style>
<g>
	<g>
		<defs>
			<rect id="SVGID_1_" x="0.4" y="1.7" width="24.1" height="21.6"/>
		</defs>
		<clipPath id="SVGID_2_">
			<use xlink:href="#SVGID_1_"  style="overflow:visible;"/>
		</clipPath>
		<g class="st0">
			<defs>
				<rect id="SVGID_3_" x="0.4" y="1.7" width="24.1" height="21.6"/>
			</defs>
			<clipPath id="SVGID_4_">
				<use xlink:href="#SVGID_3_"  style="overflow:visible;"/>
			</clipPath>
			<g class="st1">
				<g>
					<defs>
						<rect id="SVGID_5_" x="2.9" y="13.3" width="6.7" height="10"/>
					</defs>
					<clipPath id="SVGID_6_">
						<use xlink:href="#SVGID_5_"  style="overflow:visible;"/>
					</clipPath>
					<path class="st2" d="M8.9,22.5l-1.7,0.7c-0.6,0.2-1.3-0.1-1.5-0.7l-2.7-7C2.7,15,3,14.3,3.6,14.1l1.7-0.7
						c0.6-0.2,1.3,0.1,1.5,0.7l2.7,7C9.8,21.6,9.5,22.3,8.9,22.5"/>
				</g>
			</g>
			<path class="st3" d="M3.9,14.6H2.2c-0.7,0-1.3-0.6-1.3-1.3V9.5c0-0.7,0.6-1.3,1.3-1.3h1.7l12.8-5.6c0,0-3.2,8.3,0.1,16.8
				C16.7,19.4,3.9,14.6,3.9,14.6"/>
			<path class="st4" d="M20.6,11c0,4.9-1.1,8.8-2.6,8.8c-1.4,0-2.6-3.9-2.6-8.8s1.1-8.8,2.6-8.8C19.5,2.2,20.6,6.2,20.6,11"/>
			<path class="st5" d="M18.1,20.3c-2,0-3.1-4.7-3.1-9.3s1-9.3,3.1-9.3c2,0,3.1,4.7,3.1,9.3S20.1,20.3,18.1,20.3z M18.1,2.7
				C17.3,2.7,16,5.6,16,11s1.3,8.3,2.1,8.3c0.7,0,2.1-2.9,2.1-8.3S18.8,2.7,18.1,2.7z"/>
			<path class="st4" d="M2,15.4L2,15.4c-0.9,0-1.6-0.7-1.6-1.6v-5C0.4,8,1.1,7.3,2,7.3S3.6,8,3.6,8.9v5C3.6,14.7,2.9,15.4,2,15.4"/>
			<rect x="21.1" y="9.1" transform="matrix(0.9561 -0.293 0.293 0.9561 -1.8138 7.1071)" class="st4" width="3.4" height="1"/>
			<rect x="21.8" y="12.3" transform="matrix(0.468 -0.8837 0.8837 0.468 -0.4414 27.1434)" class="st4" width="1" height="3.4"/>
		</g>
	</g>
</g>
</svg>
