<?xml version="1.0" encoding="utf-8"?>
<!-- Generator: Adobe Illustrator 21.1.0, SVG Export Plug-In . SVG Version: 6.00 Build 0)  -->
<svg version="1.1" id="Layer_1" xmlns="http://www.w3.org/2000/svg" xmlns:xlink="http://www.w3.org/1999/xlink" x="0px" y="0px"
	 viewBox="0 0 25 25" style="enable-background:new 0 0 25 25;" xml:space="preserve">
<style type="text/css">
	.st0{clip-path:url(#SVGID_2_);}
	.st1{opacity:0.69;clip-path:url(#SVGID_4_);}
	.st2{clip-path:url(#SVGID_6_);fill:#6AA9DD;}
	.st3{clip-path:url(#SVGID_4_);fill:#6AA9DD;}
	.st4{clip-path:url(#SVGID_4_);fill:#20568E;}
	.st5{clip-path:url(#SVGID_4_);fill:#FFFFFF;}
	.st6{clip-path:url(#SVGID_8_);fill:#D4E4F1;}
	.st7{clip-path:url(#SVGID_8_);fill:#FFFFFF;}
	.st8{clip-path:url(#SVGID_8_);fill:#20568E;}
	.st9{clip-path:url(#SVGID_8_);fill:#295A99;}
	.st10{fill:#D4E4F1;}
	.st11{fill:#6AA9DD;}
	.st12{fill:#FFFFFF;}
	.st13{fill:#295A99;}
	.st14{clip-path:url(#SVGID_10_);fill:#D4E4F1;}
	.st15{clip-path:url(#SVGID_10_);fill:#FFFFFF;}
	.st16{clip-path:url(#SVGID_10_);fill:#295A99;}
	.st17{clip-path:url(#SVGID_10_);fill:#398CCB;}
	.st18{clip-path:url(#SVGID_10_);fill:#FDFFFF;}
	.st19{clip-path:url(#SVGID_12_);fill:#295A99;}
	.st20{clip-path:url(#SVGID_12_);fill:#FDFFFF;}
	.st21{clip-path:url(#SVGID_12_);fill:#D4E4F1;}
	.st22{clip-path:url(#SVGID_12_);fill:#6AA9DD;}
	.st23{clip-path:url(#SVGID_12_);fill:#398CCB;}
	.st24{fill:#AFDFF9;}
	.st25{fill:#398CCB;}
	.st26{clip-path:url(#SVGID_14_);}
	.st27{opacity:0.3;clip-path:url(#SVGID_16_);}
	.st28{clip-path:url(#SVGID_18_);fill:#A5C5E2;}
	.st29{opacity:0.6;clip-path:url(#SVGID_16_);}
	.st30{clip-path:url(#SVGID_20_);fill:#A5C5E2;}
	.st31{opacity:0.2;clip-path:url(#SVGID_16_);}
	.st32{clip-path:url(#SVGID_22_);fill:#A5C5E2;}
	.st33{clip-path:url(#SVGID_14_);fill:#AFDFF9;}
	.st34{clip-path:url(#SVGID_14_);fill:#6AA9DD;}
	.st35{clip-path:url(#SVGID_14_);fill:#D4E4F1;}
	.st36{clip-path:url(#SVGID_24_);fill:#295A99;}
	.st37{clip-path:url(#SVGID_14_);fill:#295A99;}
	.st38{clip-path:url(#SVGID_26_);fill:#295A99;}
	.st39{clip-path:url(#SVGID_28_);fill:#295A99;}
	.st40{clip-path:url(#SVGID_30_);fill:#295A99;}
	.st41{clip-path:url(#SVGID_32_);fill:#6AA9DD;}
	.st42{clip-path:url(#SVGID_32_);}
	.st43{opacity:0.5;clip-path:url(#SVGID_34_);}
	.st44{clip-path:url(#SVGID_36_);fill:#295A99;}
	.st45{opacity:0.6;clip-path:url(#SVGID_34_);}
	.st46{clip-path:url(#SVGID_38_);fill:#3E85C5;}
	.st47{opacity:0.2;clip-path:url(#SVGID_34_);}
	.st48{clip-path:url(#SVGID_40_);fill:#3E85C5;}
	.st49{opacity:0.3;clip-path:url(#SVGID_34_);}
	.st50{clip-path:url(#SVGID_42_);fill:#3E85C5;}
	.st51{clip-path:url(#SVGID_32_);fill:#AFDFF9;}
	.st52{clip-path:url(#SVGID_44_);fill:#FFFFFF;}
	.st53{clip-path:url(#SVGID_44_);fill:#D2E3F0;}
	.st54{clip-path:url(#SVGID_44_);fill:#20568E;}
	.st55{clip-path:url(#SVGID_44_);fill:#3E85C5;}
	.st56{fill:#2C5261;}
	.st57{clip-path:url(#SVGID_46_);fill:#D4E4F1;}
	.st58{clip-path:url(#SVGID_46_);fill:#6AA9DD;}
	.st59{clip-path:url(#SVGID_46_);fill:#295A99;}
	.st60{clip-path:url(#SVGID_46_);fill:#398CCB;}
	.st61{clip-path:url(#SVGID_48_);fill:#2C5261;}
	.st62{clip-path:url(#SVGID_48_);fill:#398CCB;}
	.st63{clip-path:url(#SVGID_48_);fill:#20568E;}
	.st64{clip-path:url(#SVGID_48_);fill:#6AA9DD;}
	.st65{clip-path:url(#SVGID_48_);fill:#D4E4F1;}
	.st66{clip-path:url(#SVGID_48_);}
	.st67{opacity:0.2;clip-path:url(#SVGID_50_);}
	.st68{clip-path:url(#SVGID_52_);fill:#3E85C5;}
	.st69{fill:#20568E;}
	.st70{fill:#3E85C5;}
	.st71{clip-path:url(#SVGID_54_);fill:#295A99;}
	.st72{clip-path:url(#SVGID_56_);fill:#295A99;}
	.st73{clip-path:url(#SVGID_58_);fill:#295A99;}
	.st74{fill:#2D4456;}
	.st75{clip-path:url(#SVGID_60_);fill:#D4E4F1;}
	.st76{clip-path:url(#SVGID_60_);fill:#398CCB;}
	.st77{clip-path:url(#SVGID_60_);fill:#AFDFF9;}
	.st78{clip-path:url(#SVGID_60_);fill:#6AA9DD;}
	.st79{clip-path:url(#SVGID_60_);fill:#20568E;}
	.st80{clip-path:url(#SVGID_60_);fill:#2C5261;}
	.st81{clip-path:url(#SVGID_62_);}
	.st82{opacity:0.8;clip-path:url(#SVGID_64_);}
	.st83{clip-path:url(#SVGID_66_);fill:#AFDFF9;}
	.st84{clip-path:url(#SVGID_62_);fill:#6AA9DD;}
	.st85{opacity:0.5;clip-path:url(#SVGID_68_);}
	.st86{clip-path:url(#SVGID_70_);fill:#D4E4F1;}
	.st87{clip-path:url(#SVGID_62_);fill:#295A99;}
	.st88{clip-path:url(#SVGID_62_);fill:#2C5261;}
	.st89{clip-path:url(#SVGID_62_);fill:#398CCB;}
	.st90{clip-path:url(#SVGID_72_);fill:#295A99;}
	.st91{clip-path:url(#SVGID_74_);fill:#295A99;}
	.st92{clip-path:url(#SVGID_76_);fill:#295A99;}
</style>
<g>
	<ellipse transform="matrix(0.5 -0.866 0.866 0.5 -4.5755 17.0753)" class="st10" cx="12.5" cy="12.5" rx="11.2" ry="11.2"/>
	<path class="st24" d="M6.9,22.2c4.4,2.5,9.7,1.8,13.2-1.5c-0.6-1.7-1.8-3.2-3.6-4.2c-3.9-2.2-8.9-0.9-11.1,3
		c-0.2,0.4-0.4,0.8-0.6,1.2C5.5,21.3,6.1,21.8,6.9,22.2z"/>
	<ellipse transform="matrix(0.5 -0.866 0.866 0.5 -4.5751 17.0753)" class="st11" cx="12.5" cy="12.5" rx="8.1" ry="8.1"/>
	<path class="st25" d="M16.6,16.5c-3.4-1.9-7.5-1.2-10,1.5c0.5,0.6,1.2,1.1,1.9,1.5c3.4,1.9,7.5,1.2,10-1.5
		C17.9,17.4,17.3,16.9,16.6,16.5z"/>
	<g>
		<ellipse transform="matrix(0.4999 -0.8661 0.8661 0.4999 -4.5747 17.0769)" class="st13" cx="12.5" cy="12.5" rx="3.8" ry="3.8"/>
		<path class="st25" d="M14.4,9.2c1.8,1.1,2.5,3.4,1.4,5.2c-1.1,1.8-3.4,2.5-5.2,1.4"/>
	</g>
	<g>
		<g>
			<path class="st13" d="M12.5,16.8c-2.4,0-4.3-1.9-4.3-4.3s1.9-4.3,4.3-4.3s4.3,1.9,4.3,4.3S14.9,16.8,12.5,16.8z M12.5,9.2
				c-1.8,0-3.3,1.5-3.3,3.3s1.5,3.3,3.3,3.3s3.3-1.5,3.3-3.3S14.3,9.2,12.5,9.2z"/>
		</g>
	</g>
</g>
</svg>
