<?xml version="1.0" encoding="utf-8"?>
<!-- Generator: Adobe Illustrator 21.1.0, SVG Export Plug-In . SVG Version: 6.00 Build 0)  -->
<svg version="1.1" id="Layer_1" xmlns="http://www.w3.org/2000/svg" xmlns:xlink="http://www.w3.org/1999/xlink" x="0px" y="0px"
	 viewBox="0 0 25 25" style="enable-background:new 0 0 25 25;" xml:space="preserve">
<style type="text/css">
	.st0{clip-path:url(#SVGID_2_);}
	.st1{opacity:0.69;clip-path:url(#SVGID_4_);}
	.st2{clip-path:url(#SVGID_6_);fill:#6AA9DD;}
	.st3{clip-path:url(#SVGID_4_);fill:#6AA9DD;}
	.st4{clip-path:url(#SVGID_4_);fill:#20568E;}
	.st5{clip-path:url(#SVGID_4_);fill:#FFFFFF;}
	.st6{clip-path:url(#SVGID_8_);fill:#D4E4F1;}
	.st7{clip-path:url(#SVGID_8_);fill:#FFFFFF;}
	.st8{clip-path:url(#SVGID_8_);fill:#20568E;}
	.st9{clip-path:url(#SVGID_8_);fill:#295A99;}
	.st10{fill:#D4E4F1;}
	.st11{fill:#6AA9DD;}
	.st12{fill:#FFFFFF;}
	.st13{fill:#295A99;}
	.st14{clip-path:url(#SVGID_10_);fill:#D4E4F1;}
	.st15{clip-path:url(#SVGID_10_);fill:#FFFFFF;}
	.st16{clip-path:url(#SVGID_10_);fill:#295A99;}
	.st17{clip-path:url(#SVGID_10_);fill:#398CCB;}
	.st18{clip-path:url(#SVGID_10_);fill:#FDFFFF;}
	.st19{clip-path:url(#SVGID_12_);fill:#295A99;}
	.st20{clip-path:url(#SVGID_12_);fill:#FDFFFF;}
	.st21{clip-path:url(#SVGID_12_);fill:#D4E4F1;}
	.st22{clip-path:url(#SVGID_12_);fill:#6AA9DD;}
	.st23{clip-path:url(#SVGID_12_);fill:#398CCB;}
	.st24{fill:#AFDFF9;}
	.st25{fill:#398CCB;}
	.st26{clip-path:url(#SVGID_14_);}
	.st27{opacity:0.3;clip-path:url(#SVGID_16_);}
	.st28{clip-path:url(#SVGID_18_);fill:#A5C5E2;}
	.st29{opacity:0.6;clip-path:url(#SVGID_16_);}
	.st30{clip-path:url(#SVGID_20_);fill:#A5C5E2;}
	.st31{opacity:0.2;clip-path:url(#SVGID_16_);}
	.st32{clip-path:url(#SVGID_22_);fill:#A5C5E2;}
	.st33{clip-path:url(#SVGID_14_);fill:#AFDFF9;}
	.st34{clip-path:url(#SVGID_14_);fill:#6AA9DD;}
	.st35{clip-path:url(#SVGID_14_);fill:#D4E4F1;}
	.st36{clip-path:url(#SVGID_24_);fill:#295A99;}
	.st37{clip-path:url(#SVGID_14_);fill:#295A99;}
	.st38{clip-path:url(#SVGID_26_);fill:#295A99;}
	.st39{clip-path:url(#SVGID_28_);fill:#295A99;}
	.st40{clip-path:url(#SVGID_30_);fill:#295A99;}
	.st41{clip-path:url(#SVGID_32_);fill:#6AA9DD;}
	.st42{clip-path:url(#SVGID_32_);}
	.st43{opacity:0.5;clip-path:url(#SVGID_34_);}
	.st44{clip-path:url(#SVGID_36_);fill:#295A99;}
	.st45{opacity:0.6;clip-path:url(#SVGID_34_);}
	.st46{clip-path:url(#SVGID_38_);fill:#3E85C5;}
	.st47{opacity:0.2;clip-path:url(#SVGID_34_);}
	.st48{clip-path:url(#SVGID_40_);fill:#3E85C5;}
	.st49{opacity:0.3;clip-path:url(#SVGID_34_);}
	.st50{clip-path:url(#SVGID_42_);fill:#3E85C5;}
	.st51{clip-path:url(#SVGID_32_);fill:#AFDFF9;}
	.st52{clip-path:url(#SVGID_44_);fill:#FFFFFF;}
	.st53{clip-path:url(#SVGID_44_);fill:#D2E3F0;}
	.st54{clip-path:url(#SVGID_44_);fill:#20568E;}
	.st55{clip-path:url(#SVGID_44_);fill:#3E85C5;}
	.st56{fill:#2C5261;}
	.st57{clip-path:url(#SVGID_46_);fill:#D4E4F1;}
	.st58{clip-path:url(#SVGID_46_);fill:#6AA9DD;}
	.st59{clip-path:url(#SVGID_46_);fill:#295A99;}
	.st60{clip-path:url(#SVGID_46_);fill:#398CCB;}
	.st61{clip-path:url(#SVGID_48_);fill:#2C5261;}
	.st62{clip-path:url(#SVGID_48_);fill:#398CCB;}
	.st63{clip-path:url(#SVGID_48_);fill:#20568E;}
	.st64{clip-path:url(#SVGID_48_);fill:#6AA9DD;}
	.st65{clip-path:url(#SVGID_48_);fill:#D4E4F1;}
	.st66{clip-path:url(#SVGID_48_);}
	.st67{opacity:0.2;clip-path:url(#SVGID_50_);}
	.st68{clip-path:url(#SVGID_52_);fill:#3E85C5;}
	.st69{fill:#20568E;}
	.st70{fill:#3E85C5;}
	.st71{clip-path:url(#SVGID_54_);fill:#295A99;}
	.st72{clip-path:url(#SVGID_56_);fill:#295A99;}
	.st73{clip-path:url(#SVGID_58_);fill:#295A99;}
	.st74{fill:#2D4456;}
	.st75{clip-path:url(#SVGID_60_);fill:#D4E4F1;}
	.st76{clip-path:url(#SVGID_60_);fill:#398CCB;}
	.st77{clip-path:url(#SVGID_60_);fill:#AFDFF9;}
	.st78{clip-path:url(#SVGID_60_);fill:#6AA9DD;}
	.st79{clip-path:url(#SVGID_60_);fill:#20568E;}
	.st80{clip-path:url(#SVGID_60_);fill:#2C5261;}
	.st81{clip-path:url(#SVGID_62_);}
	.st82{opacity:0.8;clip-path:url(#SVGID_64_);}
	.st83{clip-path:url(#SVGID_66_);fill:#AFDFF9;}
	.st84{clip-path:url(#SVGID_62_);fill:#6AA9DD;}
	.st85{opacity:0.5;clip-path:url(#SVGID_68_);}
	.st86{clip-path:url(#SVGID_70_);fill:#D4E4F1;}
	.st87{clip-path:url(#SVGID_62_);fill:#295A99;}
	.st88{clip-path:url(#SVGID_62_);fill:#2C5261;}
	.st89{clip-path:url(#SVGID_62_);fill:#398CCB;}
	.st90{clip-path:url(#SVGID_72_);fill:#295A99;}
	.st91{clip-path:url(#SVGID_74_);fill:#295A99;}
	.st92{clip-path:url(#SVGID_76_);fill:#295A99;}
</style>
<g>
	<defs>
		<rect id="SVGID_13_" x="2.3" y="0.8" width="20.4" height="23.4"/>
	</defs>
	<clipPath id="SVGID_2_">
		<use xlink:href="#SVGID_13_"  style="overflow:visible;"/>
	</clipPath>
	<g class="st0">
		<defs>
			<rect id="SVGID_15_" x="2.3" y="0.8" width="20.4" height="23.4"/>
		</defs>
		<clipPath id="SVGID_4_">
			<use xlink:href="#SVGID_15_"  style="overflow:visible;"/>
		</clipPath>
		<g style="opacity:0.3;clip-path:url(#SVGID_4_);">
			<g>
				<defs>
					<rect id="SVGID_17_" x="2.3" y="6.4" width="10.7" height="17.9"/>
				</defs>
				<clipPath id="SVGID_6_">
					<use xlink:href="#SVGID_17_"  style="overflow:visible;"/>
				</clipPath>
				<path style="clip-path:url(#SVGID_6_);fill:#A5C5E2;" d="M12.5,24.2c-0.1,0-0.2,0-0.3-0.1l-9.7-5.6c-0.2-0.1-0.2-0.3-0.2-0.4
					V6.9c0-0.2,0.1-0.3,0.3-0.4c0.2-0.1,0.3-0.1,0.5,0l9.7,5.6c0.2,0.1,0.2,0.3,0.2,0.4l0,11.2c0,0.2-0.1,0.3-0.3,0.4
					C12.7,24.2,12.6,24.2,12.5,24.2z M3.3,17.8l8.7,5l0-10.1L3.3,7.7V17.8z"/>
			</g>
		</g>
		<g style="opacity:0.6;clip-path:url(#SVGID_4_);">
			<g>
				<defs>
					<rect id="SVGID_19_" x="2.3" y="0.8" width="20.4" height="12.2"/>
				</defs>
				<clipPath id="SVGID_8_">
					<use xlink:href="#SVGID_19_"  style="overflow:visible;"/>
				</clipPath>
				<path style="clip-path:url(#SVGID_8_);fill:#A5C5E2;" d="M12.5,13c-0.1,0-0.2,0-0.3-0.1L2.6,7.3C2.4,7.2,2.3,7,2.3,6.9
					c0-0.2,0.1-0.3,0.3-0.4l9.7-5.6c0.2-0.1,0.3-0.1,0.5,0l9.7,5.6c0.2,0.1,0.2,0.3,0.2,0.4s-0.1,0.3-0.2,0.4l-9.7,5.6
					C12.7,13,12.6,13,12.5,13z M3.8,6.9l8.7,5.1l8.7-5l-8.7-5L3.8,6.9z"/>
			</g>
		</g>
		<g style="opacity:0.2;clip-path:url(#SVGID_4_);">
			<g>
				<defs>
					<rect id="SVGID_21_" x="12" y="6.4" width="10.7" height="17.8"/>
				</defs>
				<clipPath id="SVGID_10_">
					<use xlink:href="#SVGID_21_"  style="overflow:visible;"/>
				</clipPath>
				<path style="clip-path:url(#SVGID_10_);fill:#A5C5E2;" d="M12.5,24.2c-0.1,0-0.2,0-0.2-0.1c-0.2-0.1-0.2-0.3-0.2-0.4l0-11.2
					c0-0.2,0.1-0.3,0.2-0.4l9.7-5.6c0.2-0.1,0.3-0.1,0.5,0c0.2,0.1,0.2,0.3,0.2,0.4l0,11.2c0,0.2-0.1,0.3-0.2,0.4l-9.7,5.6
					C12.7,24.2,12.6,24.2,12.5,24.2z M13,12.8l0,10.1l8.7-5l0-10.1L13,12.8z"/>
			</g>
		</g>
	</g>
	<polygon style="clip-path:url(#SVGID_2_);fill:#AFDFF9;" points="2.7,18.1 12.5,23.7 12.5,12.5 2.7,6.9 	"/>
	<polygon style="clip-path:url(#SVGID_2_);fill:#6AA9DD;" points="2.7,6.9 12.5,12.5 22.3,6.9 12.5,1.3 	"/>
	<polygon style="clip-path:url(#SVGID_2_);fill:#D4E4F1;" points="12.5,12.5 12.5,23.7 22.3,18.1 22.3,6.9 	"/>
	<g class="st0">
		<defs>
			<rect id="SVGID_23_" x="2.3" y="0.8" width="20.4" height="23.4"/>
		</defs>
		<clipPath id="SVGID_12_">
			<use xlink:href="#SVGID_23_"  style="overflow:visible;"/>
		</clipPath>
		<rect x="7.2" y="4.1" transform="matrix(0.5014 -0.8652 0.8652 0.5014 -4.5571 11.4437)" class="st19" width="1" height="11.2"/>
		<polygon class="st19" points="12,23.7 12,12.2 21.9,6.5 22.4,7.3 13,12.8 13,23.7 		"/>
		<polygon class="st19" points="13,7.3 10.2,7.3 10.2,6.3 12,6.3 12,1.3 13,1.3 		"/>
	</g>
	<polygon style="clip-path:url(#SVGID_2_);fill:#295A99;" points="18.3,20.1 18.2,16 15.9,17.3 15.4,16.5 19.2,14.2 19.3,20.1 	"/>
	<g class="st0">
		<defs>
			<rect id="SVGID_25_" x="2.3" y="0.8" width="20.4" height="23.4"/>
		</defs>
		<clipPath id="SVGID_14_">
			<use xlink:href="#SVGID_25_"  style="overflow:visible;"/>
		</clipPath>
		<polygon class="st37" points="11,22.6 10,22.6 10,18.7 9.1,18.3 9.5,17.4 11,18 		"/>
		<rect x="5.6" y="8.5" transform="matrix(0.472 -0.8816 0.8816 0.472 -7.6062 11.8315)" class="st37" width="1" height="7.5"/>
	</g>
	<rect x="5.2" y="12.1" style="clip-path:url(#SVGID_2_);fill:#295A99;" width="1" height="7.8"/>
	<g class="st0">
		<defs>
			<rect id="SVGID_27_" x="2.3" y="0.8" width="20.4" height="23.4"/>
		</defs>
		<clipPath id="SVGID_16_">
			<use xlink:href="#SVGID_27_"  style="overflow:visible;"/>
		</clipPath>
		
			<rect x="2.8" y="6.3" transform="matrix(1 -9.765159e-03 9.765159e-03 1 -6.652109e-02 5.389141e-02)" style="clip-path:url(#SVGID_16_);fill:#295A99;" width="5.4" height="1"/>
	</g>
	<rect x="12" y="10.6" style="clip-path:url(#SVGID_2_);fill:#295A99;" width="1" height="1.8"/>
	<g class="st0">
		<defs>
			<rect id="SVGID_29_" x="2.3" y="0.8" width="20.4" height="23.4"/>
		</defs>
		<clipPath id="SVGID_18_">
			<use xlink:href="#SVGID_29_"  style="overflow:visible;"/>
		</clipPath>
		
			<rect x="14.6" y="21" transform="matrix(1 -5.645071e-03 5.645071e-03 1 -0.1218 8.540373e-02)" style="clip-path:url(#SVGID_18_);fill:#295A99;" width="1" height="1.2"/>
		<path style="clip-path:url(#SVGID_18_);fill:#295A99;" d="M12.5,11.1c-0.8,0-1.5-0.7-1.5-1.5s0.7-1.5,1.5-1.5
			c0.8,0,1.5,0.7,1.5,1.5S13.3,11.1,12.5,11.1z M12.5,9.2c-0.3,0-0.5,0.2-0.5,0.5s0.2,0.5,0.5,0.5c0.3,0,0.5-0.2,0.5-0.5
			S12.8,9.2,12.5,9.2z"/>
		<path style="clip-path:url(#SVGID_18_);fill:#295A99;" d="M9.1,8.2c-0.8,0-1.5-0.7-1.5-1.5c0-0.8,0.7-1.5,1.5-1.5
			c0.8,0,1.5,0.7,1.5,1.5C10.6,7.5,9.9,8.2,9.1,8.2z M9.1,6.3c-0.3,0-0.5,0.2-0.5,0.5c0,0.2,0.2,0.5,0.5,0.5c0.3,0,0.5-0.2,0.5-0.5
			C9.6,6.5,9.3,6.3,9.1,6.3z"/>
		<path style="clip-path:url(#SVGID_18_);fill:#295A99;" d="M10.2,15.9c-0.8,0-1.5-0.7-1.5-1.5S9.4,13,10.2,13
			c0.8,0,1.5,0.7,1.5,1.5S11,15.9,10.2,15.9z M10.2,14c-0.3,0-0.5,0.2-0.5,0.5s0.2,0.5,0.5,0.5c0.3,0,0.5-0.2,0.5-0.5
			S10.4,14,10.2,14z"/>
		<path style="clip-path:url(#SVGID_18_);fill:#295A99;" d="M8.4,18.9c-0.8,0-1.5-0.7-1.5-1.5S7.5,16,8.4,16s1.5,0.7,1.5,1.5
			S9.2,18.9,8.4,18.9z M8.4,17c-0.3,0-0.5,0.2-0.5,0.5s0.2,0.5,0.5,0.5s0.5-0.2,0.5-0.5S8.6,17,8.4,17z"/>
		<path style="clip-path:url(#SVGID_18_);fill:#295A99;" d="M16.1,8.1C16.1,8.1,16.1,8.1,16.1,8.1c-0.4,0-0.8-0.2-1-0.4
			c-0.3-0.3-0.4-0.6-0.4-1c0-0.8,0.7-1.4,1.5-1.4c0,0,0,0,0,0l0,0c0.8,0,1.4,0.7,1.4,1.5C17.6,7.5,16.9,8.1,16.1,8.1z M16.1,6.2
			c-0.3,0-0.5,0.2-0.5,0.4c0,0.1,0,0.2,0.1,0.3C15.9,7,16,7.1,16.1,7.1c0.2,0,0.5-0.2,0.5-0.4C16.6,6.4,16.4,6.2,16.1,6.2
			C16.1,6.2,16.1,6.2,16.1,6.2z"/>
		<path style="clip-path:url(#SVGID_18_);fill:#295A99;" d="M16.9,14.9C16.9,14.9,16.9,14.9,16.9,14.9c-0.4,0-0.8-0.2-1-0.4
			s-0.4-0.6-0.4-1s0.2-0.8,0.4-1c0.3-0.3,0.6-0.4,1-0.4c0,0,0,0,0,0l0,0c0.8,0,1.5,0.7,1.4,1.5C18.3,14.3,17.7,14.9,16.9,14.9z
			 M16.9,13c-0.1,0-0.2,0-0.3,0.1c-0.1,0.1-0.1,0.2-0.1,0.3c0,0.1,0,0.2,0.1,0.3c0.1,0.1,0.2,0.1,0.3,0.1c0.2,0,0.5-0.2,0.5-0.4
			C17.3,13.2,17.1,13,16.9,13C16.9,13,16.9,13,16.9,13z"/>
		<path style="clip-path:url(#SVGID_18_);fill:#295A99;" d="M14.7,18.7C14.7,18.7,14.7,18.7,14.7,18.7c-0.4,0-0.8-0.2-1-0.4
			s-0.4-0.6-0.4-1c0-0.8,0.7-1.4,1.5-1.4c0,0,0,0,0,0l0,0c0.8,0,1.4,0.7,1.4,1.5C16.1,18,15.5,18.7,14.7,18.7z M14.7,16.8
			c-0.2,0-0.5,0.2-0.5,0.4c0,0.1,0,0.2,0.1,0.3c0.1,0.1,0.2,0.1,0.3,0.1c0.2,0,0.5-0.2,0.5-0.4C15.1,17,14.9,16.8,14.7,16.8
			C14.7,16.8,14.7,16.8,14.7,16.8z"/>
		<path style="clip-path:url(#SVGID_18_);fill:#295A99;" d="M15,21.6C15,21.6,15,21.6,15,21.6c-0.4,0-0.8-0.2-1-0.4
			c-0.3-0.3-0.4-0.6-0.4-1c0-0.8,0.7-1.4,1.5-1.4c0,0,0,0,0,0l0,0c0.8,0,1.4,0.7,1.4,1.5C16.5,20.9,15.8,21.6,15,21.6z M15,19.7
			c-0.3,0-0.5,0.2-0.5,0.4c0,0.1,0,0.2,0.1,0.3c0.1,0.1,0.2,0.1,0.3,0.1c0.2,0,0.5-0.2,0.5-0.4C15.5,19.9,15.3,19.7,15,19.7
			C15,19.7,15,19.7,15,19.7z"/>
		
			<rect x="17.3" y="11.2" transform="matrix(0.8658 -0.5003 0.5003 0.8658 -3.1684 11.5462)" style="clip-path:url(#SVGID_18_);fill:#295A99;" width="5.2" height="1"/>
		
			<rect x="16.7" y="4.9" transform="matrix(0.8333 -0.5529 0.5529 0.8333 -2.172715e-03 10.7155)" style="clip-path:url(#SVGID_18_);fill:#295A99;" width="2.1" height="1"/>
	</g>
</g>
</svg>
