<?xml version="1.0" encoding="utf-8"?>
<!-- Generator: Adobe Illustrator 21.1.0, SVG Export Plug-In . SVG Version: 6.00 Build 0)  -->
<svg version="1.1" id="Layer_1" xmlns="http://www.w3.org/2000/svg" xmlns:xlink="http://www.w3.org/1999/xlink" x="0px" y="0px"
	 viewBox="0 0 25 25" style="enable-background:new 0 0 25 25;" xml:space="preserve">
<style type="text/css">
	.st0{clip-path:url(#SVGID_2_);}
	.st1{opacity:0.69;clip-path:url(#SVGID_4_);}
	.st2{clip-path:url(#SVGID_6_);fill:#6AA9DD;}
	.st3{clip-path:url(#SVGID_4_);fill:#6AA9DD;}
	.st4{clip-path:url(#SVGID_4_);fill:#20568E;}
	.st5{clip-path:url(#SVGID_4_);fill:#FFFFFF;}
	.st6{clip-path:url(#SVGID_8_);fill:#D4E4F1;}
	.st7{clip-path:url(#SVGID_8_);fill:#FFFFFF;}
	.st8{clip-path:url(#SVGID_8_);fill:#20568E;}
	.st9{clip-path:url(#SVGID_8_);fill:#295A99;}
	.st10{fill:#D4E4F1;}
	.st11{fill:#6AA9DD;}
	.st12{fill:#FFFFFF;}
	.st13{fill:#295A99;}
	.st14{clip-path:url(#SVGID_10_);fill:#D4E4F1;}
	.st15{clip-path:url(#SVGID_10_);fill:#FFFFFF;}
	.st16{clip-path:url(#SVGID_10_);fill:#295A99;}
	.st17{clip-path:url(#SVGID_10_);fill:#398CCB;}
	.st18{clip-path:url(#SVGID_10_);fill:#FDFFFF;}
	.st19{clip-path:url(#SVGID_12_);fill:#295A99;}
	.st20{clip-path:url(#SVGID_12_);fill:#FDFFFF;}
	.st21{clip-path:url(#SVGID_12_);fill:#D4E4F1;}
	.st22{clip-path:url(#SVGID_12_);fill:#6AA9DD;}
	.st23{clip-path:url(#SVGID_12_);fill:#398CCB;}
	.st24{fill:#AFDFF9;}
	.st25{fill:#398CCB;}
	.st26{clip-path:url(#SVGID_14_);}
	.st27{opacity:0.3;clip-path:url(#SVGID_16_);}
	.st28{clip-path:url(#SVGID_18_);fill:#A5C5E2;}
	.st29{opacity:0.6;clip-path:url(#SVGID_16_);}
	.st30{clip-path:url(#SVGID_20_);fill:#A5C5E2;}
	.st31{opacity:0.2;clip-path:url(#SVGID_16_);}
	.st32{clip-path:url(#SVGID_22_);fill:#A5C5E2;}
	.st33{clip-path:url(#SVGID_14_);fill:#AFDFF9;}
	.st34{clip-path:url(#SVGID_14_);fill:#6AA9DD;}
	.st35{clip-path:url(#SVGID_14_);fill:#D4E4F1;}
	.st36{clip-path:url(#SVGID_24_);fill:#295A99;}
	.st37{clip-path:url(#SVGID_14_);fill:#295A99;}
	.st38{clip-path:url(#SVGID_26_);fill:#295A99;}
	.st39{clip-path:url(#SVGID_28_);fill:#295A99;}
	.st40{clip-path:url(#SVGID_30_);fill:#295A99;}
	.st41{clip-path:url(#SVGID_32_);fill:#6AA9DD;}
	.st42{clip-path:url(#SVGID_32_);}
	.st43{opacity:0.5;clip-path:url(#SVGID_34_);}
	.st44{clip-path:url(#SVGID_36_);fill:#295A99;}
	.st45{opacity:0.6;clip-path:url(#SVGID_34_);}
	.st46{clip-path:url(#SVGID_38_);fill:#3E85C5;}
	.st47{opacity:0.2;clip-path:url(#SVGID_34_);}
	.st48{clip-path:url(#SVGID_40_);fill:#3E85C5;}
	.st49{opacity:0.3;clip-path:url(#SVGID_34_);}
	.st50{clip-path:url(#SVGID_42_);fill:#3E85C5;}
	.st51{clip-path:url(#SVGID_32_);fill:#AFDFF9;}
	.st52{clip-path:url(#SVGID_44_);fill:#FFFFFF;}
	.st53{clip-path:url(#SVGID_44_);fill:#D2E3F0;}
	.st54{clip-path:url(#SVGID_44_);fill:#20568E;}
	.st55{clip-path:url(#SVGID_44_);fill:#3E85C5;}
	.st56{fill:#2C5261;}
	.st57{clip-path:url(#SVGID_46_);fill:#D4E4F1;}
	.st58{clip-path:url(#SVGID_46_);fill:#6AA9DD;}
	.st59{clip-path:url(#SVGID_46_);fill:#295A99;}
	.st60{clip-path:url(#SVGID_46_);fill:#398CCB;}
	.st61{clip-path:url(#SVGID_48_);fill:#2C5261;}
	.st62{clip-path:url(#SVGID_48_);fill:#398CCB;}
	.st63{clip-path:url(#SVGID_48_);fill:#20568E;}
	.st64{clip-path:url(#SVGID_48_);fill:#6AA9DD;}
	.st65{clip-path:url(#SVGID_48_);fill:#D4E4F1;}
	.st66{clip-path:url(#SVGID_48_);}
	.st67{opacity:0.2;clip-path:url(#SVGID_50_);}
	.st68{clip-path:url(#SVGID_52_);fill:#3E85C5;}
	.st69{fill:#20568E;}
	.st70{fill:#3E85C5;}
	.st71{clip-path:url(#SVGID_54_);fill:#295A99;}
	.st72{clip-path:url(#SVGID_56_);fill:#295A99;}
	.st73{clip-path:url(#SVGID_58_);fill:#295A99;}
	.st74{fill:#2D4456;}
	.st75{clip-path:url(#SVGID_60_);fill:#D4E4F1;}
	.st76{clip-path:url(#SVGID_60_);fill:#398CCB;}
	.st77{clip-path:url(#SVGID_60_);fill:#AFDFF9;}
	.st78{clip-path:url(#SVGID_60_);fill:#6AA9DD;}
	.st79{clip-path:url(#SVGID_60_);fill:#20568E;}
	.st80{clip-path:url(#SVGID_60_);fill:#2C5261;}
	.st81{clip-path:url(#SVGID_62_);}
	.st82{opacity:0.8;clip-path:url(#SVGID_64_);}
	.st83{clip-path:url(#SVGID_66_);fill:#AFDFF9;}
	.st84{clip-path:url(#SVGID_62_);fill:#6AA9DD;}
	.st85{opacity:0.5;clip-path:url(#SVGID_68_);}
	.st86{clip-path:url(#SVGID_70_);fill:#D4E4F1;}
	.st87{clip-path:url(#SVGID_62_);fill:#295A99;}
	.st88{clip-path:url(#SVGID_62_);fill:#2C5261;}
	.st89{clip-path:url(#SVGID_62_);fill:#398CCB;}
	.st90{clip-path:url(#SVGID_72_);fill:#295A99;}
	.st91{clip-path:url(#SVGID_74_);fill:#295A99;}
	.st92{clip-path:url(#SVGID_76_);fill:#295A99;}
</style>
<g>
	<g>
		<defs>
			<rect id="SVGID_7_" x="0.5" y="0.5" width="24" height="24"/>
		</defs>
		<clipPath id="SVGID_2_">
			<use xlink:href="#SVGID_7_"  style="overflow:visible;"/>
		</clipPath>
		<path style="clip-path:url(#SVGID_2_);fill:#D4E4F1;" d="M6.5,22.9C0.8,19.6-1.2,12.2,2.1,6.5c3.3-5.7,10.7-7.7,16.4-4.4
			c5.7,3.3,7.7,10.7,4.4,16.4C19.6,24.2,12.2,26.2,6.5,22.9"/>
		<path style="clip-path:url(#SVGID_2_);fill:#FFFFFF;" d="M8.2,20C4,17.6,2.6,12.3,5,8.2C7.4,4,12.7,2.6,16.8,5
			c4.2,2.4,5.6,7.7,3.2,11.9C17.6,21,12.3,22.4,8.2,20"/>
		<rect x="12" y="11" style="clip-path:url(#SVGID_2_);fill:#20568E;" width="1" height="10.7"/>
		
			<rect x="9.8" y="11.5" transform="matrix(0.7163 -0.6978 0.6978 0.7163 -5.0493 11.4931)" style="clip-path:url(#SVGID_2_);fill:#20568E;" width="3.6" height="1"/>
		
			<rect x="12.9" y="10.2" transform="matrix(0.6893 -0.7245 0.7245 0.6893 -4.4693 13.4524)" style="clip-path:url(#SVGID_2_);fill:#20568E;" width="1" height="3.5"/>
		<path style="clip-path:url(#SVGID_2_);fill:#295A99;" d="M12.5,21.7l0-1c2.9,0,5.6-1.6,7.1-4.1c2.3-3.9,0.9-8.9-3-11.2
			c-1.9-1.1-4.1-1.4-6.2-0.8c-2.1,0.6-3.9,1.9-5,3.8c-2.3,3.9-0.9,8.9,3,11.2l-0.5,0.9C3.5,17.9,2,12.3,4.5,7.9
			c1.2-2.1,3.2-3.6,5.6-4.3c2.4-0.6,4.9-0.3,7,0.9c4.4,2.5,5.9,8.2,3.4,12.6C18.8,19.9,15.8,21.7,12.5,21.7z"/>
	</g>
</g>
</svg>
