<?xml version="1.0" encoding="utf-8"?>
<!-- Generator: Adobe Illustrator 21.1.0, SVG Export Plug-In . SVG Version: 6.00 Build 0)  -->
<svg version="1.1" id="Layer_1" xmlns="http://www.w3.org/2000/svg" xmlns:xlink="http://www.w3.org/1999/xlink" x="0px" y="0px"
	 viewBox="0 0 25 25" style="enable-background:new 0 0 25 25;" xml:space="preserve">
<style type="text/css">
	.st0{clip-path:url(#SVGID_2_);}
	.st1{opacity:0.69;clip-path:url(#SVGID_4_);}
	.st2{clip-path:url(#SVGID_6_);fill:#6AA9DD;}
	.st3{clip-path:url(#SVGID_4_);fill:#6AA9DD;}
	.st4{clip-path:url(#SVGID_4_);fill:#20568E;}
	.st5{clip-path:url(#SVGID_4_);fill:#FFFFFF;}
	.st6{clip-path:url(#SVGID_8_);fill:#D4E4F1;}
	.st7{clip-path:url(#SVGID_8_);fill:#FFFFFF;}
	.st8{clip-path:url(#SVGID_8_);fill:#20568E;}
	.st9{clip-path:url(#SVGID_8_);fill:#295A99;}
	.st10{fill:#D4E4F1;}
	.st11{fill:#6AA9DD;}
	.st12{fill:#FFFFFF;}
	.st13{fill:#295A99;}
	.st14{clip-path:url(#SVGID_10_);fill:#D4E4F1;}
	.st15{clip-path:url(#SVGID_10_);fill:#FFFFFF;}
	.st16{clip-path:url(#SVGID_10_);fill:#295A99;}
	.st17{clip-path:url(#SVGID_10_);fill:#398CCB;}
	.st18{clip-path:url(#SVGID_10_);fill:#FDFFFF;}
	.st19{clip-path:url(#SVGID_12_);fill:#295A99;}
	.st20{clip-path:url(#SVGID_12_);fill:#FDFFFF;}
	.st21{clip-path:url(#SVGID_12_);fill:#D4E4F1;}
	.st22{clip-path:url(#SVGID_12_);fill:#6AA9DD;}
	.st23{clip-path:url(#SVGID_12_);fill:#398CCB;}
	.st24{fill:#AFDFF9;}
	.st25{fill:#398CCB;}
	.st26{clip-path:url(#SVGID_14_);}
	.st27{opacity:0.3;clip-path:url(#SVGID_16_);}
	.st28{clip-path:url(#SVGID_18_);fill:#A5C5E2;}
	.st29{opacity:0.6;clip-path:url(#SVGID_16_);}
	.st30{clip-path:url(#SVGID_20_);fill:#A5C5E2;}
	.st31{opacity:0.2;clip-path:url(#SVGID_16_);}
	.st32{clip-path:url(#SVGID_22_);fill:#A5C5E2;}
	.st33{clip-path:url(#SVGID_14_);fill:#AFDFF9;}
	.st34{clip-path:url(#SVGID_14_);fill:#6AA9DD;}
	.st35{clip-path:url(#SVGID_14_);fill:#D4E4F1;}
	.st36{clip-path:url(#SVGID_24_);fill:#295A99;}
	.st37{clip-path:url(#SVGID_14_);fill:#295A99;}
	.st38{clip-path:url(#SVGID_26_);fill:#295A99;}
	.st39{clip-path:url(#SVGID_28_);fill:#295A99;}
	.st40{clip-path:url(#SVGID_30_);fill:#295A99;}
	.st41{clip-path:url(#SVGID_32_);fill:#6AA9DD;}
	.st42{clip-path:url(#SVGID_32_);}
	.st43{opacity:0.5;clip-path:url(#SVGID_34_);}
	.st44{clip-path:url(#SVGID_36_);fill:#295A99;}
	.st45{opacity:0.6;clip-path:url(#SVGID_34_);}
	.st46{clip-path:url(#SVGID_38_);fill:#3E85C5;}
	.st47{opacity:0.2;clip-path:url(#SVGID_34_);}
	.st48{clip-path:url(#SVGID_40_);fill:#3E85C5;}
	.st49{opacity:0.3;clip-path:url(#SVGID_34_);}
	.st50{clip-path:url(#SVGID_42_);fill:#3E85C5;}
	.st51{clip-path:url(#SVGID_32_);fill:#AFDFF9;}
	.st52{clip-path:url(#SVGID_44_);fill:#FFFFFF;}
	.st53{clip-path:url(#SVGID_44_);fill:#D2E3F0;}
	.st54{clip-path:url(#SVGID_44_);fill:#20568E;}
	.st55{clip-path:url(#SVGID_44_);fill:#3E85C5;}
	.st56{fill:#2C5261;}
	.st57{clip-path:url(#SVGID_46_);fill:#D4E4F1;}
	.st58{clip-path:url(#SVGID_46_);fill:#6AA9DD;}
	.st59{clip-path:url(#SVGID_46_);fill:#295A99;}
	.st60{clip-path:url(#SVGID_46_);fill:#398CCB;}
	.st61{clip-path:url(#SVGID_48_);fill:#2C5261;}
	.st62{clip-path:url(#SVGID_48_);fill:#398CCB;}
	.st63{clip-path:url(#SVGID_48_);fill:#20568E;}
	.st64{clip-path:url(#SVGID_48_);fill:#6AA9DD;}
	.st65{clip-path:url(#SVGID_48_);fill:#D4E4F1;}
	.st66{clip-path:url(#SVGID_48_);}
	.st67{opacity:0.2;clip-path:url(#SVGID_50_);}
	.st68{clip-path:url(#SVGID_52_);fill:#3E85C5;}
	.st69{fill:#20568E;}
	.st70{fill:#3E85C5;}
	.st71{clip-path:url(#SVGID_54_);fill:#295A99;}
	.st72{clip-path:url(#SVGID_56_);fill:#295A99;}
	.st73{clip-path:url(#SVGID_58_);fill:#295A99;}
	.st74{fill:#2D4456;}
	.st75{clip-path:url(#SVGID_60_);fill:#D4E4F1;}
	.st76{clip-path:url(#SVGID_60_);fill:#398CCB;}
	.st77{clip-path:url(#SVGID_60_);fill:#AFDFF9;}
	.st78{clip-path:url(#SVGID_60_);fill:#6AA9DD;}
	.st79{clip-path:url(#SVGID_60_);fill:#20568E;}
	.st80{clip-path:url(#SVGID_60_);fill:#2C5261;}
	.st81{clip-path:url(#SVGID_62_);}
	.st82{opacity:0.8;clip-path:url(#SVGID_64_);}
	.st83{clip-path:url(#SVGID_66_);fill:#AFDFF9;}
	.st84{clip-path:url(#SVGID_62_);fill:#6AA9DD;}
	.st85{opacity:0.5;clip-path:url(#SVGID_68_);}
	.st86{clip-path:url(#SVGID_70_);fill:#D4E4F1;}
	.st87{clip-path:url(#SVGID_62_);fill:#295A99;}
	.st88{clip-path:url(#SVGID_62_);fill:#2C5261;}
	.st89{clip-path:url(#SVGID_62_);fill:#398CCB;}
	.st90{clip-path:url(#SVGID_72_);fill:#295A99;}
	.st91{clip-path:url(#SVGID_74_);fill:#295A99;}
	.st92{clip-path:url(#SVGID_76_);fill:#295A99;}
</style>
<g>
	<defs>
		<rect id="SVGID_31_" x="0.4" y="1.5" width="24.2" height="22"/>
	</defs>
	<clipPath id="SVGID_2_">
		<use xlink:href="#SVGID_31_"  style="overflow:visible;"/>
	</clipPath>
	<polygon style="clip-path:url(#SVGID_2_);fill:#6AA9DD;" points="7.5,1.5 0.4,6.3 2.7,12.2 12.5,15 21.9,12.4 24.6,6.5 24.6,6.5 
		18.4,1.5 	"/>
	<g class="st0">
		<defs>
			<rect id="SVGID_33_" x="0.4" y="1.5" width="24.2" height="22"/>
		</defs>
		<clipPath id="SVGID_4_">
			<use xlink:href="#SVGID_33_"  style="overflow:visible;"/>
		</clipPath>
		<g style="opacity:0.5;clip-path:url(#SVGID_4_);">
			<g>
				<defs>
					<rect id="SVGID_35_" x="21.9" y="6.5" width="2.7" height="14.5"/>
				</defs>
				<clipPath id="SVGID_6_">
					<use xlink:href="#SVGID_35_"  style="overflow:visible;"/>
				</clipPath>
				<polygon style="clip-path:url(#SVGID_6_);fill:#295A99;" points="21.9,12.4 21.9,21 24.6,14.9 24.6,6.5 				"/>
			</g>
		</g>
		<g style="opacity:0.6;clip-path:url(#SVGID_4_);">
			<g>
				<defs>
					<rect id="SVGID_37_" x="12.5" y="12.4" width="9.4" height="11.1"/>
				</defs>
				<clipPath id="SVGID_8_">
					<use xlink:href="#SVGID_37_"  style="overflow:visible;"/>
				</clipPath>
				<polygon style="clip-path:url(#SVGID_8_);fill:#3E85C5;" points="21.9,12.4 12.5,15 12.5,23.5 21.9,21 				"/>
			</g>
		</g>
		<g style="opacity:0.2;clip-path:url(#SVGID_4_);">
			<g>
				<defs>
					<rect id="SVGID_39_" x="2.7" y="12.2" width="9.8" height="11.3"/>
				</defs>
				<clipPath id="SVGID_10_">
					<use xlink:href="#SVGID_39_"  style="overflow:visible;"/>
				</clipPath>
				<polygon style="clip-path:url(#SVGID_10_);fill:#3E85C5;" points="12.5,15 2.7,12.2 2.7,20.8 12.5,23.5 				"/>
			</g>
		</g>
		<g style="opacity:0.3;clip-path:url(#SVGID_4_);">
			<g>
				<defs>
					<rect id="SVGID_41_" x="0.4" y="6.3" width="2.3" height="14.5"/>
				</defs>
				<clipPath id="SVGID_12_">
					<use xlink:href="#SVGID_41_"  style="overflow:visible;"/>
				</clipPath>
				<polygon style="clip-path:url(#SVGID_12_);fill:#3E85C5;" points="2.7,12.2 0.4,6.3 0.4,14.6 2.7,20.8 				"/>
			</g>
		</g>
	</g>
	<polygon style="clip-path:url(#SVGID_2_);fill:#AFDFF9;" points="11.6,7.8 11.8,7.3 12.5,7.1 13.1,7.4 13.3,7.8 12.8,8.2 12.1,8.2 
			"/>
	<g class="st0">
		<defs>
			<rect id="SVGID_43_" x="0.4" y="1.5" width="24.2" height="22"/>
		</defs>
		<clipPath id="SVGID_14_">
			<use xlink:href="#SVGID_43_"  style="overflow:visible;"/>
		</clipPath>
		<path style="clip-path:url(#SVGID_14_);fill:#FFFFFF;" d="M16.3,3.3L16.3,3.3C16.3,3.3,16.3,3.3,16.3,3.3
			C16.3,3.3,16.3,3.4,16.3,3.3c-0.1,0.1-0.2,0.2-0.2,0.2c0,0-0.1,0-0.1,0.1l0,0c-0.2,0.2-0.3,0.3-0.4,0.5c0,0.1,0,0.1,0,0.2
			c0,0,0,0,0,0l-0.1,0.1c0.6,0.2,1.1,0.6,1.6,0.9c0.4,0.4,0.8,0.8,1,1.3l0.2,0l0,0c0.1,0,0.1,0.1,0.2,0.1c0.2,0,0.5-0.1,0.8-0.2
			c0.1,0,0.1,0,0.1,0c0.1,0,0.2,0,0.3-0.1c0,0,0.1,0,0.1,0c0,0,0,0,0,0c0.3,0,0.5,0.1,0.6,0.2c0,0.1,0,0.2-0.1,0.2
			C20.4,6.9,20.3,7,20.2,7c0,0,0,0,0,0c0,0-0.1,0-0.1,0c-0.1,0-0.2,0-0.3,0c0,0-0.1,0-0.2,0c-0.3,0-0.6,0-0.8,0.1
			c-0.1,0-0.1,0-0.1,0c0,0,0,0,0,0.1l0,0l-0.2,0c0,0.2,0,0.4,0,0.6c0,0.8-0.4,1.5-1.1,2.1l0.1,0.1c0,0,0,0,0,0c0,0,0,0.1,0.1,0.1
			c0.2,0.1,0.4,0.2,0.7,0.3l0,0c0,0,0.1,0,0.1,0c0.1,0,0.2,0.1,0.3,0.1l0.1,0l0,0c0.2,0.1,0.3,0.3,0.1,0.4c-0.1,0.1-0.2,0.1-0.3,0.1
			c-0.1,0-0.3,0-0.4-0.1l0,0l-0.1,0c-0.1,0-0.1-0.1-0.2-0.1c0,0-0.1,0-0.1-0.1l0,0c-0.2-0.1-0.4-0.3-0.6-0.4c-0.1,0-0.2,0-0.2,0
			c0,0,0,0,0,0l-0.2-0.1c-0.2,0.1-0.4,0.3-0.6,0.4c-0.9,0.5-2.1,0.8-3.2,0.8l0,0.1l0,0c0,0-0.1,0-0.1,0c0,0,0,0.1-0.1,0.1
			c0,0.2,0,0.3,0,0.5c0,0,0,0.1,0,0.1c0,0.1,0,0.1,0,0.2c0,0,0,0,0,0.1c0,0,0,0,0,0c0,0.1,0,0.2-0.1,0.2c-0.1,0.1-0.2,0.1-0.4,0.1
			c-0.2,0-0.5-0.2-0.5-0.3c0,0,0,0,0,0c0,0,0,0,0-0.1c0-0.1,0-0.1,0-0.2c0,0,0-0.1,0-0.1c0-0.2,0.1-0.4,0.1-0.5
			c0-0.1-0.1-0.1-0.1-0.1l0,0l0-0.1c-0.1,0-0.1,0-0.1,0c-1.4-0.1-2.7-0.6-3.6-1.2l-0.2,0.1c0,0,0,0,0,0c-0.1,0-0.1,0-0.2,0
			c-0.2,0.1-0.4,0.2-0.6,0.4l0,0c0,0-0.1,0.1-0.1,0.1c-0.1,0-0.1,0.1-0.2,0.1c0,0,0,0-0.1,0c0,0,0,0,0,0c-0.2,0.1-0.5,0.1-0.7,0
			c-0.1-0.1-0.1-0.3,0-0.4c0,0,0.1,0,0.1-0.1c0,0,0,0,0,0c0,0,0,0,0.1,0c0.1,0,0.2-0.1,0.3-0.1c0,0,0.1,0,0.1,0l0,0
			c0.3-0.1,0.5-0.2,0.7-0.3l0,0C7.3,10,7.3,10,7.3,10c0,0,0,0,0,0l0.2-0.1c-0.6-0.7-1-1.4-0.9-2.2c0-0.2,0-0.3,0.1-0.5l-0.2,0
			c0,0,0,0,0,0C6.3,7,6.3,7,6.2,7C6,6.9,5.7,6.9,5.4,6.9l0,0c-0.1,0-0.1,0-0.2,0c-0.1,0-0.2,0-0.3,0c0,0-0.1,0-0.1,0c0,0,0,0,0,0
			c-0.3,0-0.4-0.2-0.4-0.4c0,0,0-0.1,0.1-0.1C4.6,6.2,4.9,6.2,5,6.2c0,0,0,0,0,0c0,0,0.1,0,0.1,0c0.1,0,0.2,0,0.3,0.1
			c0,0,0.1,0,0.1,0c0.3,0.1,0.5,0.1,0.8,0.2c0.1,0,0.2,0,0.2,0c0,0,0,0,0,0l0.2,0C7.1,6,7.4,5.6,7.9,5.2c0.3-0.2,0.6-0.4,1-0.6
			c0.2-0.1,0.4-0.2,0.7-0.3L9.5,4.2c0,0,0,0,0,0c0,0,0.1-0.1,0-0.2C9.4,3.9,9.3,3.7,9.1,3.5l0,0c0,0,0-0.1-0.1-0.1
			C9,3.4,8.9,3.4,8.9,3.3c0,0,0,0,0-0.1c0,0,0,0,0,0C8.7,3.1,8.8,3,8.9,2.9c0,0,0.1-0.1,0.2-0.1c0.1,0,0.2,0,0.4,0
			c0.1,0,0.2,0.1,0.3,0.2c0,0,0,0,0,0c0,0,0,0,0,0.1c0,0.1,0.1,0.1,0.1,0.2c0,0,0,0.1,0,0.1l0,0c0.1,0.2,0.2,0.4,0.3,0.5
			c0.1,0.1,0.1,0.1,0.2,0.1c0,0,0,0,0,0L10.5,4c0.9-0.2,1.8-0.3,2.8-0.2c0.5,0,1,0.1,1.5,0.2L14.8,4c0,0,0,0,0,0C14.9,4,15,4,15,3.9
			l0,0c0.1-0.1,0.2-0.3,0.3-0.5l0,0c0,0,0-0.1,0-0.1c0-0.1,0-0.1,0.1-0.2c0,0,0,0,0-0.1c0,0,0,0,0,0c0,0,0,0,0.1-0.1
			c0.1-0.1,0.4-0.2,0.6-0.1C16.4,2.9,16.5,3.1,16.3,3.3 M17.2,7.5l-2.4,0.4c-0.2,0-0.3,0.2-0.3,0.3c0,0,0,0.1,0.1,0.1l1.8,1.1
			C17,8.8,17.3,8.1,17.2,7.5 M15.3,10.2c0.1-0.1,0.3-0.1,0.4-0.2l-2-0.9c-0.2-0.1-0.4-0.1-0.6,0c0,0-0.1,0.1-0.1,0.1l-0.2,1.6
			C13.8,10.8,14.6,10.6,15.3,10.2 M11.7,10.8l-0.1-1.6c0-0.1-0.2-0.3-0.4-0.3c-0.1,0-0.1,0-0.2,0L9,9.9
			C9.7,10.4,10.7,10.7,11.7,10.8 M10,7.8L7.7,7.4C7.5,8,7.7,8.7,8.3,9.3l1.9-1.1c0.1-0.1,0.1-0.2,0-0.4C10.1,7.9,10.1,7.8,10,7.8
			 M9.5,5.3C9.2,5.4,9,5.6,8.7,5.7C8.4,6,8.1,6.3,7.9,6.6l2.4,0.3c0.2,0,0.4-0.1,0.4-0.2c0-0.1,0-0.1,0-0.2L9.9,5.1
			C9.8,5.1,9.6,5.2,9.5,5.3 M13,4.6c-0.7-0.1-1.4,0-2.1,0.1l1.2,1.4c0.1,0.1,0.3,0.1,0.5,0.1c0.1,0,0.1-0.1,0.2-0.1L14,4.8
			C13.7,4.7,13.4,4.6,13,4.6 M15.1,5.1l-1,1.5c-0.1,0.1,0,0.3,0.2,0.3c0.1,0,0.1,0,0.2,0l2.5-0.2c-0.2-0.3-0.4-0.6-0.7-0.9
			C15.9,5.5,15.5,5.3,15.1,5.1"/>
		<path style="clip-path:url(#SVGID_14_);fill:#D2E3F0;" d="M11.3,7.6c-0.1,0.4,0.3,0.8,0.9,0.8c0.6,0.1,1.1-0.2,1.2-0.6
			C13.6,7.4,13.2,7,12.6,7C12,6.9,11.4,7.2,11.3,7.6"/>
		<path style="clip-path:url(#SVGID_14_);fill:#20568E;" d="M11.9,7.6C11.8,7.8,12,8,12.3,8c0.3,0,0.5-0.1,0.6-0.3
			c0-0.2-0.1-0.4-0.4-0.4C12.2,7.3,11.9,7.4,11.9,7.6"/>
		<path style="clip-path:url(#SVGID_14_);fill:#3E85C5;" d="M11.9,7.6C11.8,7.8,12,8,12.3,8c0.3,0,0.5-0.1,0.6-0.3"/>
		<path style="clip-path:url(#SVGID_14_);fill:#20568E;" d="M12.4,8.5c-0.2,0-0.4,0-0.6-0.1c-0.3-0.1-0.4-0.4-0.4-0.6
			c0-0.3,0.1-0.5,0.3-0.7C12,6.8,12.6,6.8,13,7c0.3,0.1,0.4,0.4,0.4,0.6c0,0.3-0.1,0.5-0.3,0.7C12.9,8.4,12.6,8.5,12.4,8.5z
			 M12.5,7.9C12.5,7.9,12.5,7.9,12.5,7.9l0.2-0.4L12.5,7.9z"/>
	</g>
</g>
</svg>
