<?xml version="1.0" encoding="utf-8"?>
<!-- Generator: Adobe Illustrator 21.1.0, SVG Export Plug-In . SVG Version: 6.00 Build 0)  -->
<svg version="1.1" id="Layer_1" xmlns="http://www.w3.org/2000/svg" xmlns:xlink="http://www.w3.org/1999/xlink" x="0px" y="0px"
	 viewBox="0 0 25 25" style="enable-background:new 0 0 25 25;" xml:space="preserve">
<style type="text/css">
	.st0{clip-path:url(#SVGID_2_);}
	.st1{opacity:0.69;clip-path:url(#SVGID_4_);}
	.st2{clip-path:url(#SVGID_6_);fill:#6AA9DD;}
	.st3{clip-path:url(#SVGID_4_);fill:#6AA9DD;}
	.st4{clip-path:url(#SVGID_4_);fill:#20568E;}
	.st5{clip-path:url(#SVGID_4_);fill:#FFFFFF;}
	.st6{clip-path:url(#SVGID_8_);fill:#D4E4F1;}
	.st7{clip-path:url(#SVGID_8_);fill:#FFFFFF;}
	.st8{clip-path:url(#SVGID_8_);fill:#20568E;}
	.st9{clip-path:url(#SVGID_8_);fill:#295A99;}
	.st10{fill:#D4E4F1;}
	.st11{fill:#6AA9DD;}
	.st12{fill:#FFFFFF;}
	.st13{fill:#295A99;}
	.st14{clip-path:url(#SVGID_10_);fill:#D4E4F1;}
	.st15{clip-path:url(#SVGID_10_);fill:#FFFFFF;}
	.st16{clip-path:url(#SVGID_10_);fill:#295A99;}
	.st17{clip-path:url(#SVGID_10_);fill:#398CCB;}
	.st18{clip-path:url(#SVGID_10_);fill:#FDFFFF;}
	.st19{clip-path:url(#SVGID_12_);fill:#295A99;}
	.st20{clip-path:url(#SVGID_12_);fill:#FDFFFF;}
	.st21{clip-path:url(#SVGID_12_);fill:#D4E4F1;}
	.st22{clip-path:url(#SVGID_12_);fill:#6AA9DD;}
	.st23{clip-path:url(#SVGID_12_);fill:#398CCB;}
	.st24{fill:#AFDFF9;}
	.st25{fill:#398CCB;}
	.st26{clip-path:url(#SVGID_14_);}
	.st27{opacity:0.3;clip-path:url(#SVGID_16_);}
	.st28{clip-path:url(#SVGID_18_);fill:#A5C5E2;}
	.st29{opacity:0.6;clip-path:url(#SVGID_16_);}
	.st30{clip-path:url(#SVGID_20_);fill:#A5C5E2;}
	.st31{opacity:0.2;clip-path:url(#SVGID_16_);}
	.st32{clip-path:url(#SVGID_22_);fill:#A5C5E2;}
	.st33{clip-path:url(#SVGID_14_);fill:#AFDFF9;}
	.st34{clip-path:url(#SVGID_14_);fill:#6AA9DD;}
	.st35{clip-path:url(#SVGID_14_);fill:#D4E4F1;}
	.st36{clip-path:url(#SVGID_24_);fill:#295A99;}
	.st37{clip-path:url(#SVGID_14_);fill:#295A99;}
	.st38{clip-path:url(#SVGID_26_);fill:#295A99;}
	.st39{clip-path:url(#SVGID_28_);fill:#295A99;}
	.st40{clip-path:url(#SVGID_30_);fill:#295A99;}
	.st41{clip-path:url(#SVGID_32_);fill:#6AA9DD;}
	.st42{clip-path:url(#SVGID_32_);}
	.st43{opacity:0.5;clip-path:url(#SVGID_34_);}
	.st44{clip-path:url(#SVGID_36_);fill:#295A99;}
	.st45{opacity:0.6;clip-path:url(#SVGID_34_);}
	.st46{clip-path:url(#SVGID_38_);fill:#3E85C5;}
	.st47{opacity:0.2;clip-path:url(#SVGID_34_);}
	.st48{clip-path:url(#SVGID_40_);fill:#3E85C5;}
	.st49{opacity:0.3;clip-path:url(#SVGID_34_);}
	.st50{clip-path:url(#SVGID_42_);fill:#3E85C5;}
	.st51{clip-path:url(#SVGID_32_);fill:#AFDFF9;}
	.st52{clip-path:url(#SVGID_44_);fill:#FFFFFF;}
	.st53{clip-path:url(#SVGID_44_);fill:#D2E3F0;}
	.st54{clip-path:url(#SVGID_44_);fill:#20568E;}
	.st55{clip-path:url(#SVGID_44_);fill:#3E85C5;}
	.st56{fill:#2C5261;}
	.st57{clip-path:url(#SVGID_46_);fill:#D4E4F1;}
	.st58{clip-path:url(#SVGID_46_);fill:#6AA9DD;}
	.st59{clip-path:url(#SVGID_46_);fill:#295A99;}
	.st60{clip-path:url(#SVGID_46_);fill:#398CCB;}
	.st61{clip-path:url(#SVGID_48_);fill:#2C5261;}
	.st62{clip-path:url(#SVGID_48_);fill:#398CCB;}
	.st63{clip-path:url(#SVGID_48_);fill:#20568E;}
	.st64{clip-path:url(#SVGID_48_);fill:#6AA9DD;}
	.st65{clip-path:url(#SVGID_48_);fill:#D4E4F1;}
	.st66{clip-path:url(#SVGID_48_);}
	.st67{opacity:0.2;clip-path:url(#SVGID_50_);}
	.st68{clip-path:url(#SVGID_52_);fill:#3E85C5;}
	.st69{fill:#20568E;}
	.st70{fill:#3E85C5;}
	.st71{clip-path:url(#SVGID_54_);fill:#295A99;}
	.st72{clip-path:url(#SVGID_56_);fill:#295A99;}
	.st73{clip-path:url(#SVGID_58_);fill:#295A99;}
	.st74{fill:#2D4456;}
	.st75{clip-path:url(#SVGID_60_);fill:#D4E4F1;}
	.st76{clip-path:url(#SVGID_60_);fill:#398CCB;}
	.st77{clip-path:url(#SVGID_60_);fill:#AFDFF9;}
	.st78{clip-path:url(#SVGID_60_);fill:#6AA9DD;}
	.st79{clip-path:url(#SVGID_60_);fill:#20568E;}
	.st80{clip-path:url(#SVGID_60_);fill:#2C5261;}
	.st81{clip-path:url(#SVGID_62_);}
	.st82{opacity:0.8;clip-path:url(#SVGID_64_);}
	.st83{clip-path:url(#SVGID_66_);fill:#AFDFF9;}
	.st84{clip-path:url(#SVGID_62_);fill:#6AA9DD;}
	.st85{opacity:0.5;clip-path:url(#SVGID_68_);}
	.st86{clip-path:url(#SVGID_70_);fill:#D4E4F1;}
	.st87{clip-path:url(#SVGID_62_);fill:#295A99;}
	.st88{clip-path:url(#SVGID_62_);fill:#2C5261;}
	.st89{clip-path:url(#SVGID_62_);fill:#398CCB;}
	.st90{clip-path:url(#SVGID_72_);fill:#295A99;}
	.st91{clip-path:url(#SVGID_74_);fill:#295A99;}
	.st92{clip-path:url(#SVGID_76_);fill:#295A99;}
</style>
<g>
	<defs>
		<rect id="SVGID_61_" x="1.1" y="1" width="22.9" height="22.9"/>
	</defs>
	<clipPath id="SVGID_2_">
		<use xlink:href="#SVGID_61_"  style="overflow:visible;"/>
	</clipPath>
	<g class="st0">
		<defs>
			<rect id="SVGID_63_" x="1.1" y="1" width="22.9" height="22.9"/>
		</defs>
		<clipPath id="SVGID_4_">
			<use xlink:href="#SVGID_63_"  style="overflow:visible;"/>
		</clipPath>
		<g style="opacity:0.8;clip-path:url(#SVGID_4_);">
			<g>
				<defs>
					<rect id="SVGID_65_" x="7.1" y="14.3" width="5.6" height="9.6"/>
				</defs>
				<clipPath id="SVGID_6_">
					<use xlink:href="#SVGID_65_"  style="overflow:visible;"/>
				</clipPath>
				<polygon style="clip-path:url(#SVGID_6_);fill:#AFDFF9;" points="12.7,24 7.1,20.8 7.1,14.3 12.7,17.6 				"/>
			</g>
		</g>
	</g>
	<polygon style="clip-path:url(#SVGID_2_);fill:#6AA9DD;" points="12.7,11.1 7.1,14.3 12.7,17.6 18.3,14.3 	"/>
	<g class="st0">
		<defs>
			<rect id="SVGID_67_" x="1.1" y="1" width="22.9" height="22.9"/>
		</defs>
		<clipPath id="SVGID_8_">
			<use xlink:href="#SVGID_67_"  style="overflow:visible;"/>
		</clipPath>
		<g style="opacity:0.5;clip-path:url(#SVGID_8_);">
			<g>
				<defs>
					<rect id="SVGID_69_" x="12.7" y="14.3" width="5.6" height="9.6"/>
				</defs>
				<clipPath id="SVGID_10_">
					<use xlink:href="#SVGID_69_"  style="overflow:visible;"/>
				</clipPath>
				<polygon class="st14" points="12.7,24 18.3,20.8 18.3,14.3 12.7,17.6 				"/>
			</g>
		</g>
	</g>
	<polygon style="clip-path:url(#SVGID_2_);fill:#295A99;" points="18.3,14.4 12.7,11.2 12.7,4.7 18.3,7.9 	"/>
	<polygon style="clip-path:url(#SVGID_2_);fill:#2C5261;" points="12.7,4.7 18.3,7.9 23.9,4.7 18.3,1.5 	"/>
	<polygon style="clip-path:url(#SVGID_2_);fill:#398CCB;" points="18.3,7.9 18.3,14.4 23.9,11.2 23.9,4.7 	"/>
	<g class="st0">
		<defs>
			<rect id="SVGID_71_" x="1.1" y="1" width="22.9" height="22.9"/>
		</defs>
		<clipPath id="SVGID_12_">
			<use xlink:href="#SVGID_71_"  style="overflow:visible;"/>
		</clipPath>
		<path class="st19" d="M7.2,14.9c-0.1,0-0.2,0-0.2-0.1l-5.6-3.1c-0.2-0.1-0.3-0.3-0.3-0.4V4.7c0-0.2,0.1-0.3,0.2-0.4
			c0.2-0.1,0.3-0.1,0.5,0l5.6,3.2c0.2,0.1,0.3,0.3,0.3,0.4l0,6.4c0,0.2-0.1,0.3-0.2,0.4C7.3,14.8,7.3,14.9,7.2,14.9z M2.1,11
			l4.6,2.5l0-5.3L2.1,5.6V11z"/>
		<path class="st19" d="M7.2,8.4c-0.1,0-0.2,0-0.2-0.1L1.3,5.2C1.2,5.1,1.1,4.9,1.1,4.7s0.1-0.3,0.3-0.4l5.6-3.2
			C7.1,1,7.3,1,7.4,1.1L13,4.3c0.2,0.1,0.3,0.3,0.3,0.4c0,0.2-0.1,0.3-0.3,0.4L7.4,8.4C7.3,8.4,7.2,8.4,7.2,8.4z M2.6,4.7l4.6,2.6
			l4.6-2.6L7.2,2.1L2.6,4.7z"/>
	</g>
	<path style="clip-path:url(#SVGID_2_);fill:#295A99;" d="M7.2,14.9c-0.1,0-0.2,0-0.2-0.1c-0.2-0.1-0.2-0.3-0.2-0.4l0-6.4
		c0-0.2,0.1-0.3,0.3-0.4l5.6-3.2c0.2-0.1,0.3-0.1,0.5,0c0.2,0.1,0.2,0.3,0.2,0.4v6.4c0,0.2-0.1,0.3-0.3,0.4l-5.6,3.2
		C7.3,14.8,7.3,14.9,7.2,14.9z M7.7,8.2l0,5.3l4.6-2.6V5.6L7.7,8.2z"/>
	<g class="st0">
		<defs>
			<rect id="SVGID_73_" x="1.1" y="1" width="22.9" height="22.9"/>
		</defs>
		<clipPath id="SVGID_14_">
			<use xlink:href="#SVGID_73_"  style="overflow:visible;"/>
		</clipPath>
		
			<rect x="6.6" y="1.5" transform="matrix(1 -1.953121e-03 1.953121e-03 1 -3.957476e-03 1.394752e-02)" class="st37" width="1" height="1"/>
	</g>
	
		<rect x="6.6" y="3.6" transform="matrix(1 -2.215325e-03 2.215325e-03 1 -1.047389e-02 1.584124e-02)" style="clip-path:url(#SVGID_2_);fill:#295A99;" width="1" height="2.2"/>
	
		<rect x="6.7" y="6.9" transform="matrix(1 -1.953121e-03 1.953121e-03 1 -1.452033e-02 1.398263e-02)" style="clip-path:url(#SVGID_2_);fill:#295A99;" width="1" height="1"/>
	<g class="st0">
		<defs>
			<rect id="SVGID_75_" x="1.1" y="1" width="22.9" height="22.9"/>
		</defs>
		<clipPath id="SVGID_16_">
			<use xlink:href="#SVGID_75_"  style="overflow:visible;"/>
		</clipPath>
		
			<rect x="1.4" y="10.5" transform="matrix(0.8614 -0.5079 0.5079 0.8614 -5.3335 2.5067)" style="clip-path:url(#SVGID_16_);fill:#295A99;" width="1" height="1"/>
	</g>
	
		<rect x="3.2" y="9.1" transform="matrix(0.8614 -0.5079 0.5079 0.8614 -4.2818 3.5284)" style="clip-path:url(#SVGID_2_);fill:#295A99;" width="2.3" height="1"/>
	
		<rect x="6.2" y="7.7" transform="matrix(0.8614 -0.5079 0.5079 0.8614 -3.2307 4.5496)" style="clip-path:url(#SVGID_2_);fill:#295A99;" width="1" height="1"/>
	
		<rect x="11.4" y="10.5" transform="matrix(0.5452 -0.8383 0.8383 0.5452 -3.8317 14.9548)" style="clip-path:url(#SVGID_2_);fill:#295A99;" width="1" height="1"/>
	
		<rect x="9.2" y="8.6" transform="matrix(0.5456 -0.838 0.838 0.5456 -3.6382 12.5128)" style="clip-path:url(#SVGID_2_);fill:#295A99;" width="1" height="2.1"/>
	
		<rect x="7.1" y="7.7" transform="matrix(0.5452 -0.8383 0.8383 0.5452 -3.4421 10.0832)" style="clip-path:url(#SVGID_2_);fill:#295A99;" width="1" height="1"/>
</g>
</svg>
